<?xml version="1.0" encoding="UTF-8" standalone="no"?>
<svg id="svg4187" xmlns:rdf="http://www.w3.org/1999/02/22-rdf-syntax-ns#" xmlns="http://www.w3.org/2000/svg" height="75" width="199" version="1.1" xmlns:cc="http://creativecommons.org/ns#" xmlns:dc="http://purl.org/dc/elements/1.1/" viewBox="0 0 199 75">
 <title id="title4317">LyftGuy Logo</title>
 <metadata id="metadata4192">
  <rdf:RDF>
   <cc:Work rdf:about="">
    <dc:format>image/svg+xml</dc:format>
    <dc:type rdf:resource="http://purl.org/dc/dcmitype/StillImage"/>
    <dc:title>LyftGuy Logo</dc:title>
    <dc:creator>
     <cc:Agent>
      <dc:title>Shawn Rieger</dc:title>
     </cc:Agent>
    </dc:creator>
    <dc:rights>
     <cc:Agent>
      <dc:title/>
     </cc:Agent>
    </dc:rights>
   </cc:Work>
  </rdf:RDF>
 </metadata>
 <g id="layer1" transform="translate(-81 -977.36)">
  <path id="path4337-1" d="m227.87 1052c-1.9173-1.9969-0.92531-5.9124 1.5606-10.103 1.1996-2.0217 5.659-7.1455 8.8251-10.416 2.6009-2.6866 6.191-4.1794 8.3216-7.5279 0.31733-0.871-0.357-5.1406-0.86818-5.4982-0.54089-0.3783-1.3473-0.019-2.2458 0.9994-2.5735 2.9181-8.9277 6.8975-11.048 6.919-0.98193 0.013-1.1954-0.094-1.7655-0.8607-0.35693-0.4796-0.68441-1.1225-0.72841-1.4287-0.12366-0.8645-0.84205-0.7843-2.792 0.312-2.2074 1.2412-4.826 2.3515-5.5832 2.3674-1.2947 0.027-2.4247-0.892-2.9515-2.4008-0.35768-1.0244-0.92576-0.9294-3.458 0.5783-3.4935 2.0802-4.9733 1.9917-6.0562-0.3619-0.39101-0.8496-0.47437-1.3416-0.37037-2.1849 0.35393-2.8665 0.0895-3.0786-1.903-1.5255-2.9053 2.7536-6.1906 3.9103-8.4465 6.7088-3.7452 4.6462-4.2708 12.61-7.9008 16.06-0.86059 0.6711-2.0849 1.243-3.1422 1.244-0.41618 0.0003-0.71731-0.087-1.095-0.2929-0.93897-0.5103-1.2363-1.6335-0.86755-2.6188 1.3679-3.656 7.9154-7.7006 0.6273-8.2033-3.3723-0.2717-5.4235-1.2549-7.3196-3.5085-2.8082-3.3378-3.1568-7.4558-1.1363-13.418 1.1228-3.3127 1.6941-4.3727 2.8372-6.4123 5.3733-9.6897 11.391-16.946 18.164-24.454 1.7142-1.564 4.8734-4.8378 7.1262-4.8378 4.5057 0 6.3342 4.7738 6.4605 8.2496 0.11289 3.1914-1.3767 11.608-3.9508 16.883-0.35349 0-1.5172-1.21-1.5249-1.5794-0.008-0.1727 0.4375-1.5356 0.98027-3.0286 2.3016-6.3301 2.9259-12.637 1.5519-15.672-0.54871-1.2124-2.0151-3.3523-3.517-2.6024-6.3719 3.1818-21.271 22.414-25.331 33.131-1.1316 3.2998-1.341 4.4517-1.2747 7.0116 0.0769 2.9648 0.57936 4.3512 2.1364 5.8931 2.9426 2.9137 8.4118-0.1113 11.721-2.3174 2.585-1.7232 3.688-5.0122 5.1659-7.737 1.0164-1.8741 1.8895-4.5448 2.5198-5.876 0.63049-1.3312 1.3732-3.024 1.6503-3.762 0.48459-1.2906 0.537-1.3403 1.3712-1.2994 1.3123 0.065 2.083 0.5727 2.1868 1.4424 0.0496 0.4095-0.0143 0.8933-0.13456 1.0752-0.4297 0.6355-3.4813 8.4213-3.472 8.8583 0.0165 0.7863 1.0775 0.469 2.5345-0.7577 2.8088-2.3655 3.8713-3.3214 5.0404-4.535 2.8912-3.0015 3.8794-3.8252 4.6082-3.8405 1.0223-0.021 2.012 0.9048 1.853 1.734-0.14163 0.7382-1.2307 3.0174-2.1001 4.3949-0.81334 1.2889-2.1475 4.4986-2.1341 5.1338 0.0112 0.6293 0.50321 0.8733 1.2661 0.631 0.78144-0.248 5.362-4.0576 6.5406-5.4396 0.53002-0.6216 1.2003-1.5845 1.489-2.1396 0.45515-0.8749 0.63846-1.0108 1.3732-1.0189 0.93358-0.013 2.1156 0.9299 2.1318 1.6956 0.008 0.2435-0.51846 1.1419-1.1638 1.9963-1.1798 1.562-2.4135 4.3057-2.2716 5.0526 0.18563 0.977 0.80441 0.9787 2.6068 0.012 3.3327-1.7958 5.7672-3.9883 8.9061-8.021 1.4871-1.9101 2.3929-2.8677 2.7193-2.8746 0.724-0.015 1.7902 0.6795 1.9667 1.2817 0.17339 0.5904 0.0684 0.8733-0.81003 2.1853-2.2404 3.3458-3.7987 6.42-3.5763 7.0546 0.22379 0.6386 0.80714 0.5362 2.4363-0.4278 2.1389-1.2651 3.4522-2.3346 5.663-4.6113 2.3596-2.4298 2.7906-2.7316 3.9343-2.7556 1.9018-0.04 3.34 1.8742 3.9383 5.2422 0.1686 0.9484 0.36294 1.9326 0.43211 2.1875 0.16963 0.6257 1.083 0.4379 2.4652-0.1188 9.9392-3.5097 21.196-3.2295 27.217-0.9751 0.52092 0.195 0.74275 0.7506 0.73697 1.4954-0.007 0.4651-11.204-2.3355-22.142 0.7031-2.6181 0.5328-5.2083 1.4458-6.9254 2.4411-1.1963 0.6934-1.2207 0.7395-1.4679 2.7797-0.0623 0.5137-0.19336 1.5947-0.29128 2.4022-0.33344 2.7472-1.3549 5.8346-2.9366 8.3154-2.7558 4.3225-6.9164 7.9309-10.992 10.779-2.3641 1.6545-4.7254 2.542-6.2743 2.5777-0.47445 0.013-0.76155-0.1287-1.0971-0.3816zm5.0032-3.3781c5.0483-3.1659 9.7096-8.2656 11.967-13.095 0.86283-1.9528 1.6017-4.7085 1.5794-5.8909-0.01-0.6066-0.11202-0.7297-0.58942-0.7197-1.2273 0.026-8.0257 6.3518-11.006 10.242-3.6166 4.7196-5.6325 9.0331-4.768 10.202 0.41175 0.5565 0.67571 0.4873 2.8175-0.7381zm-102.54-5.4646c-0.21065-0.6319 0.17464-2.9938 0.69552-4.3768 1.0602-2.8145 2.9914-5.2651 4.8156-7.6371 2.0321-2.6422 2.0015-3.5113-0.13352-2.9311-2.8209 0.7668-4.3166-3.0955-4.3776-4.8276-0.0172-0.8144-0.10426-0.9963-0.46838-0.9886-0.55608 0.013-1.9248 0.8786-2.5871 1.4185-1.8919 1.5433-4.4792 2.6471-6.1981 2.6052-3.7457 0.099-5.2412-3.7741-5.914-6.5107-0.88836-3.7213-1.6183-6.3198-1.8708-6.6613-0.48586-0.657-1.2187-0.3274-2.4411 1.0975-1.589 1.8523-5.7832 6.0794-7.2905 7.3476-0.65181 0.5483-1.5683 1.3684-2.0365 1.8224-1.9202 1.8614-6.2315 4.659-9.0474 5.8711-2.5941 0.9965-6.5554 1.5303-8.6427 0.3053-2.5845-1.5165-3.8739-4.2873-3.8387-7.4828 0.02027-1.6823 0.39432-3.2815 1.1632-5.3134 0.98238-2.5959 3.3796-5.5187 6.6109-8.0607 4.3139-3.3933 9.9078-5.583 15.335-5.475 3.3143 0.066 7.1008 1.8147 9.2238 3.7131 0.46958 0.42 1.0129 0.7602 1.2072 0.7561 0.39432-0.013 0.44328-0.065 2.8193-3.2701 3.1004-4.1818 3.1197-4.2602 1.5249-6.1763-2.4086-2.894-2.9678-6.7272-1.8258-12.519 0.33312-1.6899 0.99486-3.4689 1.244-3.4741 0.0865-0.001 0.30974 0.27645 0.37741 0.46359 0.27913 0.77235 0.24202 0.79877 0.0232 2.4623-0.14884 1.1352-0.24301 3.3814-0.20936 4.9915 0.0548 2.5966 0.13081 3.0914 0.67975 4.3787 1.4999 3.5197 2.5127 3.9337 4.0993 1.6754 0.54526-0.77595 1.631-2.3165 2.413-3.4236 2.0566-2.9117 5.0594-6.7631 8.114-9.6542 2.9764-2.8171 6.6414-5.76 10.318-5.8948 1.9799-0.0415 3.1744 0.53255 3.7613 1.8078 1.0105 2.1964 0.38012 6.3871-1.2456 8.9427-2.6667 4.192-6.4544 8.6108-10.487 11.018-4.3508 2.5145-8.5167 3.1354-13.123 2.4802l-0.93101-0.1382-1.9492 2.6608c-1.0724 1.4634-2.4795 3.2905-3.127 4.0602-0.64768 0.7699-1.1728 1.6271-1.1668 1.9049 0.009 0.2777 0.24022 1.0311 0.52087 1.6738 0.28084 0.6427 0.92613 2.7184 1.4344 4.6125 1.366 5.0933 1.7158 5.9852 2.6119 6.6636 1.9988 1.5132 5.3585 0.086 10.138-4.3055 1.2053-1.1076 4.544-5.3332 5.4998-6.2674 0.57222-0.5594 1.2654-1.3673 2.0163-1.3673 0.75093 0 0.88798 1.2368 0.36517 2.0043-3.0904 4.5359-5.0131 9.9926-4.1378 11.809 0.46761 0.9702 1.5908 0.7214 3.3346-0.7388 2.7234-2.2802 3.9295-3.7636 5.3441-6.5719 0.73631-1.462 1.3375-2.7164 1.336-2.7878-0.009-0.2679 1.7392-3.3336 2.1674-3.8078 0.33417-0.3703 0.64296-0.4553 1.2296-0.339 1.1464 0.2272 1.2627 1.0594 0.44695 3.1933-1.2992 3.3981-0.50222 4.102 1.8588 1.6419 6.2482-5.7446 12.311-19.78 13.073-20.243 0.71287-0.43259 2.355-0.0625 2.3826 0.76845 0.0601 1.7278-4.4964 9.8116-7.8406 14.21-1.6412 2.1385-3.8303 6.8937-3.6735 7.9802 0.0608 0.4167 0.33011 0.6543 0.96219 0.8471 1.0536 0.3212 1.3273 0.7992 1.473 2.5736 0.15499 1.8879 0.59754 2.1148 2.5503 1.3073 1.2111-0.501 2.192-1.2504 4.3384-3.3149 2.5018-2.4066 2.9474-3.5177 1.6994-4.2395-0.37525-0.2171-0.79368-0.6257-0.92982-0.908-0.34745-0.7212 0.3588-1.1332 2.229-1.3005 0.81457-0.072 1.5868-0.1779 1.7161-0.2336 0.12947-0.056 1.1081-1.7201 2.1748-3.6989 3.0194-5.6007 4.9798-8.6748 5.9539-9.3358 0.68742-0.4666 2.1396 0.17883 2.156 0.95813 0.0142 0.718-1.6926 4.9097-3.2233 7.911-2.0641 4.0475-1.9767 4.4367 0.98172 4.3746 2.6094-0.055 4.3795 0.3556 4.121 0.9552-0.2726 0.6329-1.786 1.0699-5.0849 1.4687-3.3849 0.4088-3.6152 0.5611-4.2436 2.8062-0.51965 1.4405-1.0802 2.864-1.108 4.3641-0.0938 5.0309 2.4033 2.9358 0.70958 4.4464-2.3592 1.275-2.8737-2.1766-3.0536-3.8206-0.28511-2.6075 0.2868-4.0462-0.51274-3.6375-0.24053 0-0.81215 0.4146-1.2702 0.9102-0.45776 0.4956-1.2346 1.193-1.7263 1.5498-0.49156 0.3568-1.1938 0.9511-1.5603 1.3206-1.0272 1.035-2.7093 1.8977-4.4702 2.2922-0.88004 0.1973-1.7197 0.471-1.8657 0.6083-0.14604 0.1372-0.47076 1.0356-0.7212 1.9964-0.82039 3.1441-2.4352 6.8211-3.9437 8.9793-1.1578 1.6563-1.6778 2.1735-2.7018 2.6879-1.5588 0.783-2.4764 0.5937-3.2364-0.6673-0.72804-1.2076-0.53678-3.2341 0.59709-6.3257 0.27055-0.7379 0.96878-2.6696 1.5517-4.2926 0.58303-1.623 1.5118-4.1889 2.0643-5.702 1.7274-4.7318 1.0472-5.2369-2.3549-1.7485-2.4442 2.5056-2.6895 2.9412-3.9181 6.9584-1.0686 3.4939-2.7329 7.7526-3.8407 9.8269-1.4 2.6219-3.4218 5.0262-5.0456 5.6735-1.591 0.6344-3.4809 1.1389-4.0894-0.6867zm4.4572-2.1721c1.2415-1.119 1.8907-2.0655 2.9881-4.3569 1.1949-2.4951 1.9724-4.7649 1.8004-5.2556-0.27163-0.7744-1.0227-0.3149-2.1844 1.3365-3.2312 4.5923-4.8791 7.9211-4.3054 8.697 0.39897 0.5396 0.72473 0.459 1.7013-0.421zm14.612-4.7347c1.0195-1.3645 2.405-4.4965 3.1278-7.0709 0.86441-3.0784 0.97645-4.1892 0.50411-4.9947-0.4411-0.7522-1.2321-0.8417-1.4232-0.161-0.0728 0.2578-0.70371 1.9783-1.403 3.8234-1.3589 3.5854-2.5127 7.4911-2.4928 8.4375 0.0263 1.2512 0.73734 1.2369 1.6871-0.034zm-57.23-8.3922c1.375-0.4385 4.9241-2.5482 6.7619-4.0195 0.4511-0.361 1.4052-1.1079 2.1205-1.6595 1.7202-1.3269 5.9492-5.504 9.6845-9.5653 1.9748-2.1472 2.1013-2.6764 0.93785-3.9283-1.6624-1.7889-4.2889-2.7852-7.7636-2.9452-2.8947-0.1333-5.1902 0.2863-7.8158 1.4284-4.5359 1.9732-7.471 4.1369-9.8548 7.2652-2.9814 3.9128-3.7096 7.6977-2.1432 11.14 1.2832 2.8189 3.9931 3.586 8.0727 2.2846zm47.802-34.882c4.4324-4.5981 6.3987-8.6792 5.7917-12.021-0.20622-1.1355-1.2336-1.9759-2.3879-1.9532-1.6846 0.0331-5.1655 2.3221-7.9958 5.2581-4.1895 4.3459-11.272 13.632-11.1 14.555 0.12466 0.67209 1.4315 0.94895 2.238 0.91833 5.0194-0.19087 10.424-3.6722 13.454-6.7576z" fill="#1c1c1c"/>
 </g>
</svg>
