<?xml version="1.0" encoding="UTF-8" standalone="no"?>
<svg id="svg4187" xmlns:rdf="http://www.w3.org/1999/02/22-rdf-syntax-ns#" xmlns="http://www.w3.org/2000/svg" height="66" width="230" version="1.1" xmlns:cc="http://creativecommons.org/ns#" xmlns:dc="http://purl.org/dc/elements/1.1/" viewBox="0 0 229.99976 65.999947">
 <title id="title4317">LyftGuy Logo</title>
 <metadata id="metadata4192">
  <rdf:RDF>
   <cc:Work rdf:about="">
    <dc:format>image/svg+xml</dc:format>
    <dc:type rdf:resource="http://purl.org/dc/dcmitype/StillImage"/>
    <dc:title>LyftGuy Logo</dc:title>
    <dc:creator>
     <cc:Agent>
      <dc:title>Shawn Rieger</dc:title>
     </cc:Agent>
    </dc:creator>
    <dc:rights>
     <cc:Agent>
      <dc:title/>
     </cc:Agent>
    </dc:rights>
   </cc:Work>
  </rdf:RDF>
 </metadata>
 <g id="layer1" transform="translate(-.000069189 -986.36)">
  <path id="path4560" d="m72.001 1038c0.38219-0.012 0.76532-0.01 1.1466-0.036 0.57858-0.045 1.1525-0.1391 1.731-0.1854 0.82155-0.066 1.646-0.09 2.4679-0.1509 1.0676-0.079 2.1325-0.1932 3.2005-0.2668 2.953-0.2036 5.9094-0.3547 8.8631-0.5483 16.483-0.8879 32.985-1.3966 49.482-1.935 19.562-0.4762 39.121-1.0257 58.682-1.5364 8.7668-0.4912 17.603-0.4689 26.304-1.7675 1.6733-0.2612 0.92624-0.1324 2.2435-0.373l-6.3177 3.7412c-1.2651 0.1834-0.54642 0.082-2.1568 0.2979-8.5674 1.0383-17.222 1.018-25.832 1.4042-19.5 0.4154-39 0.8969-58.497 1.4379-16.646 0.5926-33.296 1.1589-49.92 2.2148-5.9189 0.4295-11.842 0.8142-17.744 1.4438l6.3465-3.7403z"
    fill="#0eb1d2">
   <title id="title4809">underline</title>
  </path>
  <path id="path4337-1" style="image-rendering:optimizeQuality" d="m187.05 1052c-1.5798-1.6474-0.76242-4.8776 1.2859-8.3344 0.9884-1.6679 4.6628-5.895 7.2716-8.5932 2.143-2.2163 5.1012-3.4478 6.8567-6.2103 0.26147-0.7186-0.29415-4.241-0.71534-4.536-0.44568-0.3121-1.1102-0.015-1.8504 0.8245-2.1205 2.4074-7.3561 5.6903-9.1035 5.708-0.80907 0.011-0.98499-0.078-1.4547-0.71-0.29409-0.3957-0.56393-0.9261-0.60019-1.1786-0.10186-0.7133-0.69381-0.647-2.3005 0.2574-1.8188 1.0239-3.9765 1.9399-4.6004 1.953-1.0668 0.022-1.9979-0.7359-2.4319-1.9806-0.29471-0.8452-0.7628-0.7667-2.8493 0.4771-2.8785 1.7161-4.0978 1.6431-4.9901-0.2986-0.32218-0.7009-0.39087-1.1068-0.30516-1.8024 0.29162-2.3649 0.0737-2.5399-1.568-1.2586-2.3939 2.2716-5.1009 3.226-6.9596 5.5346-3.0859 3.833-3.519 10.403-6.51 13.249-0.70909 0.5536-1.7179 1.0255-2.5891 1.0263-0.34292 0.0003-0.59105-0.072-0.90227-0.2417-0.77368-0.421-1.0186-1.3476-0.71483-2.1605 1.1271-3.0161 6.522-6.3528 0.51688-6.7676-2.7787-0.2242-4.4688-1.0353-6.0311-2.8944-2.3138-2.7537-2.6011-6.1509-0.93625-11.07 0.92516-2.7329 1.3959-3.6074 2.3378-5.29 4.4274-7.9939 9.3858-13.98 14.967-20.174 1.4124-1.2903 4.0155-3.9912 5.8717-3.9912 3.7125 0 5.2192 3.9384 5.3232 6.8058 0.0931 2.6328-1.1344 9.5762-3.2553 13.928-0.29126 0-1.2501-0.9982-1.2564-1.303-0.007-0.1425 0.36048-1.2668 0.8077-2.4984 1.8964-5.2224 2.4109-10.425 1.2787-12.93-0.45212-1.0002-1.6604-2.7657-2.8979-2.1469-5.2502 2.6249-17.526 18.492-20.872 27.333-0.93239 2.7222-1.1049 3.6725-1.0503 5.7845 0.0634 2.4459 0.47738 3.5896 1.7604 4.8616 2.4246 2.4037 6.931-0.091 9.658-1.9118 2.13-1.4216 3.0387-4.135 4.2565-6.3829 0.83748-1.546 1.5569-3.7494 2.0762-4.8476 0.51949-1.0982 1.1314-2.4947 1.3598-3.1036 0.39928-1.0648 0.44248-1.1057 1.1298-1.072 1.0813 0.054 1.7164 0.4725 1.8019 1.1899 0.0408 0.3379-0.0118 0.737-0.11088 0.8871-0.35406 0.5243-2.8685 6.9474-2.8608 7.3079 0.0136 0.6488 0.88783 0.387 2.0883-0.625 2.3144-1.9515 3.1898-2.7401 4.1531-3.7413 2.3822-2.4762 3.1965-3.1558 3.797-3.1683 0.8423-0.018 1.6578 0.7464 1.5268 1.4305-0.1167 0.6089-1.0141 2.4892-1.7304 3.6257-0.67016 1.0633-1.7694 3.7112-1.7584 4.2353 0.009 0.5192 0.41463 0.7205 1.0432 0.5205 0.64386-0.2046 4.4181-3.3475 5.3892-4.4875 0.43671-0.5128 0.98902-1.3072 1.2269-1.7651 0.37501-0.7218 0.52605-0.8339 1.1314-0.8406 0.76925-0.011 1.7432 0.7671 1.7565 1.3988 0.007 0.2009-0.42719 0.942-0.95888 1.6469-0.97213 1.2886-1.9886 3.5521-1.8717 4.1683 0.15296 0.806 0.66281 0.8075 2.1479 0.011 2.746-1.4815 4.7519-3.2903 7.3383-6.6172 1.2253-1.5758 1.9716-2.3658 2.2406-2.3714 0.59656-0.012 1.475 0.5605 1.6205 1.0573 0.14287 0.487 0.0563 0.7205-0.66743 1.8028-1.846 2.7602-3.13 5.2964-2.9468 5.8199 0.18438 0.5269 0.66505 0.4424 2.0074-0.3529 1.7624-1.0437 2.8445-1.926 4.6661-3.8041 1.9442-2.0046 2.2994-2.2537 3.2417-2.2735 1.567-0.033 2.7521 1.5463 3.245 4.3247 0.13892 0.7824 0.29905 1.5944 0.35604 1.8048 0.13977 0.5162 0.89235 0.3612 2.0312-0.098 8.1896-2.8955 17.465-2.6644 22.426-0.8046 0.42922 0.161 0.61199 0.6193 0.60724 1.2338-0.005 0.3836-9.232-1.9268-18.244 0.58-2.1572 0.4395-4.2914 1.1928-5.7062 2.0139-0.98574 0.572-1.0058 0.6101-1.2095 2.2933-0.0513 0.4237-0.15932 1.3156-0.24001 1.9817-0.27474 2.2663-1.1164 4.8134-2.4196 6.86-2.2707 3.5661-5.6988 6.5429-9.0572 8.8923-1.9479 1.3649-3.8936 2.0971-5.1698 2.1266-0.39093 0.011-0.62748-0.1067-0.90395-0.3149zm4.1224-2.7869c4.1596-2.6117 8.0003-6.8189 9.8603-10.803 0.71093-1.611 1.3197-3.8844 1.3014-4.8598-0.009-0.5005-0.0923-0.602-0.48566-0.5938-1.0112 0.022-6.6128 5.2401-9.0688 8.4491-2.9799 3.8936-4.6409 7.4521-3.9287 8.4167 0.33927 0.4591 0.55675 0.402 2.3215-0.609zm-84.489-4.5081c-0.17356-0.5213 0.1439-2.4698 0.57309-3.6108 0.87355-2.322 2.4648-4.3436 3.9679-6.3005 1.6744-2.1797 1.6492-2.8968-0.11001-2.4181-2.3243 0.6326-3.5568-2.5538-3.607-3.9827-0.0142-0.6718-0.0859-0.822-0.38593-0.8156-0.45819 0.011-1.586 0.7249-2.1316 1.1703-1.5588 1.2732-3.6907 2.1837-5.107 2.1492-3.0863 0.081-4.3185-3.1136-4.8729-5.3713-0.73198-3.0699-1.3334-5.2137-1.5414-5.4954-0.40033-0.5419-1.0042-0.27-2.0114 0.9054-1.3093 1.5282-4.7651 5.0154-6.0071 6.0617-0.53707 0.4523-1.2923 1.1289-1.678 1.5034-1.5822 1.5357-5.1345 3.8437-7.4547 4.8437-2.1374 0.822-5.4014 1.2624-7.1213 0.2517-2.1296-1.251-3.192-3.5369-3.1629-6.1731 0.01671-1.3879 0.3249-2.7072 0.95845-4.3835 0.80944-2.1415 2.7847-4.5528 5.4471-6.65 3.5545-2.7994 8.1637-4.6058 12.636-4.5167 2.7309 0.054 5.8508 1.497 7.6001 3.0632 0.38692 0.3465 0.83457 0.6272 0.9947 0.6238 0.32491-0.011 0.36525-0.054 2.323-2.6978 2.5546-3.4499 2.5705-3.5146 1.2565-5.0954-1.9846-2.3875-2.4454-5.5498-1.5044-10.328 0.27448-1.3941 0.81973-2.8617 1.025-2.866 0.07128-0.00083 0.25522 0.22808 0.31098 0.38241 0.22999 0.63721 0.19942 0.65899 0.01914 2.0313-0.12264 0.93663-0.20023 2.7897-0.17251 4.118 0.04512 2.1421 0.10779 2.5503 0.56009 3.6123 1.2358 2.9038 2.0704 3.2453 3.3776 1.3823 0.44927-0.6402 1.3439-1.9111 1.9882-2.8244 1.6946-2.4022 4.1688-5.5795 6.6857-7.9647 2.4525-2.324 5.4723-4.7518 8.5014-4.863 1.6314-0.0342 2.6156 0.43934 3.0992 1.4914 0.83264 1.812 0.3132 5.2692-1.0263 7.3776-2.1972 3.4584-5.3182 7.1038-8.6408 9.0896-3.5849 2.0745-7.0174 2.5867-10.813 2.0462l-0.76712-0.114-1.6061 2.195c-0.88358 1.2074-2.043 2.7147-2.5765 3.3497-0.53367 0.6351-0.96631 1.3423-0.96141 1.5714 0.0074 0.2292 0.19793 0.8508 0.42917 1.3809 0.2314 0.5302 0.7631 2.2427 1.1819 3.8053 1.1256 4.2018 1.4138 4.9377 2.1521 5.4974 1.647 1.2483 4.4152 0.072 8.3532-3.5521 0.9931-0.9136 3.7441-4.3997 4.5317-5.1704 0.47149-0.4615 1.0426-1.1281 1.6614-1.1281 0.61874 0 0.73167 1.0204 0.30089 1.6536-2.5464 3.7421-4.1306 8.2437-3.4094 9.7421 0.3853 0.8005 1.3108 0.5952 2.7476-0.6095 2.244-1.8812 3.2378-3.1049 4.4033-5.4217 0.60669-1.2061 1.1021-2.241 1.1008-2.2998-0.008-0.2211 1.433-2.7502 1.7858-3.1414 0.27534-0.3055 0.52977-0.3757 1.0131-0.2798 0.94459 0.1875 1.0404 0.8741 0.36828 2.6345-1.0705 2.8034-0.41382 3.3841 1.5316 1.3546 5.1483-4.7392 10.143-16.318 10.772-16.7 0.58738-0.3568 1.9404-0.052 1.9632 0.634 0.0495 1.4254-3.7049 8.0944-6.4603 11.723-1.3523 1.7642-3.1561 5.6872-3.0269 6.5835 0.05 0.3437 0.27201 0.5397 0.79281 0.6988 0.8681 0.265 1.0936 0.6593 1.2137 2.1232 0.12771 1.5575 0.49235 1.7447 2.1014 1.0785 0.99792-0.4133 1.8061-1.0316 3.5746-2.7348 2.0614-1.9852 2.4285-2.9019 1.4002-3.4974-0.3092-0.1791-0.65396-0.5162-0.76614-0.749-0.28629-0.595 0.29564-0.9349 1.8366-1.073 0.67118-0.059 1.3075-0.1467 1.414-0.1927 0.1067-0.046 0.91304-1.4191 1.792-3.0515 2.4878-4.6205 4.1032-7.1566 4.9058-7.702 0.5664-0.3849 1.7629 0.1476 1.7764 0.7906 0.0118 0.5923-1.3947 4.0503-2.6559 6.5264-1.7008 3.3391-1.6287 3.6601 0.8089 3.6089 2.1501-0.045 3.6086 0.2933 3.3956 0.788-0.22462 0.5222-1.4716 0.8827-4.1898 1.2117-2.789 0.3373-2.9788 0.4629-3.4966 2.3151-0.42818 1.1883-0.89004 2.3627-0.91298 3.6003-0.0773 4.1503 1.9802 2.4219 0.58467 3.6682-1.9439 1.0518-2.3678-1.7957-2.5161-3.152-0.23493-2.1511 0.23632-3.3381-0.42248-3.0008-0.19819 0-0.66919 0.342-1.0466 0.7508-0.37718 0.4089-1.0173 0.9843-1.4224 1.2786-0.40503 0.2944-0.98361 0.7846-1.2856 1.0895-0.8464 0.8539-2.2324 1.5656-3.6833 1.891-0.7251 0.1628-1.417 0.3886-1.5373 0.5018-0.12034 0.1132-0.38789 0.8544-0.59425 1.647-0.67597 2.5939-2.0065 5.6273-3.2495 7.4079-0.954 1.3664-1.3825 1.793-2.2262 2.2174-1.2844 0.646-2.0405 0.4898-2.6666-0.5505-0.59987-0.9963-0.44227-2.6681 0.49199-5.2187 0.22291-0.6087 0.79824-2.2022 1.2785-3.5412 0.4804-1.3389 1.2457-3.4558 1.7009-4.7041 1.4233-3.9037 0.86285-4.3204-1.9403-1.4425-2.0139 2.0671-2.216 2.4264-3.2284 5.7407-0.88049 2.8822-2.2518 6.3957-3.1646 8.1069-1.1535 2.163-2.8195 4.1466-4.1574 4.6806-1.311 0.5233-2.8681 0.9396-3.3695-0.5665zm3.6725-1.792c1.0229-0.9231 1.5579-1.704 2.4621-3.5944 0.98455-2.0584 1.6252-3.931 1.4834-4.3357-0.2238-0.6389-0.84268-0.2598-1.7999 1.1025-2.6624 3.7886-4.0202 6.5349-3.5475 7.175 0.32874 0.4451 0.59715 0.3786 1.4018-0.3474zm12.039-3.906c0.84002-1.1258 1.9816-3.7096 2.5772-5.8333 0.71225-2.5398 0.80458-3.4562 0.41537-4.1207-0.36345-0.6205-1.0152-0.6944-1.1726-0.1327-0.06 0.2126-0.57983 1.632-1.156 3.1541-1.1197 2.958-2.0704 6.1801-2.054 6.9608 0.0217 1.0322 0.60754 1.0205 1.3901-0.027zm-47.156-6.9234c1.133-0.3618 4.0573-2.1023 5.5715-3.3161 0.37169-0.2978 1.1578-0.914 1.7472-1.3691 1.4174-1.0947 4.9019-4.5407 7.9797-7.8911 1.6272-1.7715 1.7314-2.2081 0.77275-3.2409-1.3698-1.4758-3.5339-2.2977-6.397-2.4297-2.3851-0.11-4.2766 0.2361-6.4399 1.1784-3.7374 1.6278-6.1558 3.4129-8.12 5.9937-2.4566 3.228-3.0566 6.3505-1.7659 9.19 1.0573 2.3255 3.2902 2.9584 6.6516 1.8848zm39.387-28.777c3.6521-3.7934 5.2723-7.1602 4.7721-9.9168-0.16991-0.93677-1.0164-1.6301-1.9675-1.6114-1.388 0.0273-4.2562 1.9157-6.5882 4.3379-3.452 3.5852-9.2874 11.246-9.146 12.007 0.10271 0.5545 1.1795 0.7829 1.844 0.7577 4.1358-0.1575 8.5894-3.0296 11.086-5.5749z"
    fill="#666666">
   <title id="title4807">lyftguy</title>
  </path>
  <g id="g4743" fill="#393939">
   <title id="title4805">head</title>
   <g>
    <path id="path4313-1" d="m2.3799 996.01c3.6828 4.1524 2.531 13.363 2.5644 21.163h1.4044s-0.34912-5.8201 0.038672-7.3426c2.2703-8.9097 15.62-4.7331 23.36 3.0639 4.4236-7.3873 17.215-7.5424 22.769-7.121l-0.25898 11.718h1.5181s-0.5016-4.6916 0.11042-6.91c0.60375-2.1886 1.7745-4.0565 3.3949-5.8853 1.7358-1.8658 3.1382-5.42 4.5944-8.0838-2.6694 1.255-8.437 1.9157-10.114 0.603 2.3737-0.59552 4.1585-1.5513 5.3545-3.6182-5.9436 0.49952-11.083 0.55089-16.659 0 0.41385-1.1168 2.4399-1.9655 4.7596-3.0152-8.7116-2.9204-13.07-0.14034-14.874 0 1.6039-1.7119 4.316-3.2002 7.7344-4.2212-3.2162 0.0724-6.0721 0.00003-9.0376 0.00003-7.3412 0-13.886 1.6215-21.305 12.664-1.7735-1.8007-3.8753-2.6853-5.3546-3.0152z" fill-rule="evenodd"/>
    <path id="path4329-7" d="m27.752 1046.8c6.7254 0.5223 7.6741-2.3835 9.5732-4.7927h2.4929c-2.201 4.6739-4.9433 8.2834-12.066 4.7927z" fill-rule="evenodd"/>
    <ellipse id="circle4333-3" cy="1023.8" rx="2.1656" ry="2.1656" cx="17.04"/>
    <ellipse id="ellipse4230-7" rx="2.1656" cy="1023.8" ry="2.1656" cx="42.028"/>
   </g>
  </g>
  <path id="path4327-8" d="m47.671 1015.1c-5.304 0.011-9.2854 1.0907-14.56 2.4108-0.94752 0.2371-2.1684 0.373-3.2627 0.3671-1.2226-0.011-2.5848-0.1331-3.6413-0.4499-8.8235-2.6457-19.587-3.3835-26.207-0.9148l0.59495 3.6611 1.7848 0.6101s2.41 7.7893 3.8179 10.527c1.1367 2.2104 4.4311 3.1539 7.8771 3.2581 3.0934-0.095 10.766 0.2047 14.059-11.4 0.27141-0.9349 0.6564-2.0078 1.6133-2.3858 0.6645-0.025 1.2125 0.5409 1.7312 2.442 2.916 10.687 8.7756 11.227 12.757 11.287 3.7413 0.057 7.7846-0.9037 9.1171-3.3457 1.4053-2.5756 2.1258-5.9767 3.7629-10.384l1.7848-0.6101 0.59495-3.6611c-4.6993-0.9573-8.6424-1.4165-11.825-1.4132zm-35.255 1.7222c5.0277 0.011 11.13 1.617 12.866 4.0266 1.4131 1.9613 0.19264 6.1601-2.5632 8.8966-2.3828 2.3663-6.0403 3.3764-8.5606 3.2411-3.6278-0.1948-5.7497-1.1133-7.4915-3.7774-1.899-2.9047-2.2014-7.6769-1.3207-9.9001 0.69294-1.749 3.6301-2.4923 7.0703-2.4868zm34.627 0c3.4401-0.011 6.3773 0.7378 7.0702 2.4868 0.88064 2.2232 0.57829 6.9954-1.3207 9.9001-1.7418 2.6641-3.8637 3.5826-7.4914 3.7774-2.5203 0.1353-6.1779-0.8748-8.5607-3.2411-2.7559-2.7365-3.9755-6.9353-2.5624-8.8966 1.7361-2.4096 7.8372-4.0185 12.865-4.0266z" fill-rule="evenodd"
    fill="#ed5565">
   <title id="title4803">glasses</title>
  </path>
 </g>
</svg>
