<?xml version="1.0" encoding="UTF-8" standalone="no"?>
<svg id="svg4187" xmlns:rdf="http://www.w3.org/1999/02/22-rdf-syntax-ns#" xmlns="http://www.w3.org/2000/svg" height="80" width="280" version="1.1" xmlns:cc="http://creativecommons.org/ns#" xmlns:dc="http://purl.org/dc/elements/1.1/" viewBox="0 0 279.99991 80">
 <title id="title4317">LyftGuy Logo</title>
 <metadata id="metadata4192">
  <rdf:RDF>
   <cc:Work rdf:about="">
    <dc:format>image/svg+xml</dc:format>
    <dc:type rdf:resource="http://purl.org/dc/dcmitype/StillImage"/>
    <dc:title>LyftGuy Logo</dc:title>
    <dc:creator>
     <cc:Agent>
      <dc:title>Shawn Rieger</dc:title>
     </cc:Agent>
    </dc:creator>
    <dc:rights>
     <cc:Agent>
      <dc:title/>
     </cc:Agent>
    </dc:rights>
   </cc:Work>
  </rdf:RDF>
 </metadata>
 <g id="layer1" transform="translate(-.000069 -972.36)">
  <g id="g4276" transform="matrix(1.25 0 0 1.25 -18.75 -236.84)">
   <path id="path4337-1" d="m197.35 1031.1c-1.5319-1.5975-0.73932-4.7299 1.2469-8.082 0.95844-1.6174 4.5215-5.7164 7.0512-8.3328 2.0781-2.1493 4.9466-3.3435 6.6489-6.0223 0.25355-0.6968-0.28524-4.1125-0.69367-4.3986-0.43217-0.3026-1.0765-0.015-1.7944 0.7995-2.0562 2.3345-7.1332 5.518-8.8276 5.5352-0.78456 0.01-0.95514-0.075-1.4106-0.6885-0.28518-0.3837-0.54684-0.898-0.582-1.143-0.0988-0.6916-0.67279-0.6274-2.2308 0.2496-1.7637 0.993-3.856 1.8812-4.461 1.8939-1.0344 0.022-1.9373-0.7136-2.3582-1.9206-0.28578-0.8195-0.73968-0.7435-2.763 0.4626-2.7913 1.6642-3.9736 1.5934-4.8389-0.2895-0.31242-0.6797-0.37902-1.0733-0.29592-1.7479 0.28278-2.2932 0.0715-2.4629-1.5205-1.2204-2.3213 2.2029-4.9463 3.1282-6.7487 5.367-2.9924 3.7169-3.4124 10.088-6.3127 12.848-0.68761 0.5369-1.6658 0.9944-2.5106 0.9952-0.33253 0.0003-0.57313-0.07-0.87493-0.2343-0.75023-0.4082-0.98778-1.3068-0.69317-2.095 1.093-2.9248 6.3244-6.1605 0.50122-6.5627-2.6945-0.2173-4.3334-1.0039-5.8483-2.8067-2.2437-2.6702-2.5223-5.9646-0.90786-10.734 0.89711-2.6502 1.3536-3.4982 2.2669-5.1299 4.2932-7.7517 9.1014-13.556 14.513-19.563 1.3696-1.2512 3.8938-3.8702 5.6938-3.8702 3.6 0 5.061 3.819 5.1619 6.5996 0.0902 2.5531-1.1 9.2862-3.1567 13.506-0.28243 0-1.2122-0.96804-1.2184-1.2635-0.006-0.13819 0.34956-1.2284 0.78323-2.4228 1.839-5.0641 2.3378-10.109 1.24-12.538-0.43842-0.96988-1.6101-2.6818-2.8101-2.0819-5.0911 2.5454-16.995 17.931-20.239 26.505-0.90415 2.6398-1.0714 3.5613-1.0185 5.6092 0.0614 2.3719 0.46291 3.481 1.707 4.7145 2.3511 2.3309 6.721-0.089 9.3654-1.8539 2.0654-1.3786 2.9467-4.0098 4.1275-6.1896 0.81211-1.4992 1.5097-3.6358 2.0133-4.7007 0.50376-1.065 1.0972-2.4193 1.3186-3.0096 0.38719-1.0325 0.42907-1.0722 1.0956-1.0395 1.0485 0.052 1.6644 0.45817 1.7473 1.1539 0.0396 0.32755-0.0114 0.71465-0.10751 0.86015-0.34333 0.5084-2.7815 6.737-2.7741 7.0866 0.0132 0.629 0.86093 0.3752 2.025-0.6062 2.2442-1.8923 3.0932-2.657 4.0273-3.6279 2.31-2.4012 3.0997-3.0602 3.682-3.0724 0.81679-0.017 1.6076 0.7238 1.4805 1.3872-0.11316 0.5905-0.98335 2.4139-1.678 3.5159-0.64986 1.0311-1.7158 3.5988-1.7051 4.107 0.009 0.5034 0.40207 0.6986 1.0116 0.5048 0.62436-0.1984 4.2842-3.2461 5.226-4.3516 0.42348-0.4973 0.95905-1.2676 1.1897-1.7117 0.36366-0.6999 0.51012-0.8086 1.0972-0.8151 0.74593-0.01 1.6904 0.7439 1.7033 1.3565 0.006 0.1948-0.41425 0.9135-0.92983 1.597-0.94267 1.2495-1.9284 3.4445-1.815 4.042 0.14832 0.7816 0.64272 0.783 2.0828 0.01 2.6628-1.4366 4.608-3.1906 7.1159-6.4167 1.1882-1.5281 1.9119-2.2942 2.1727-2.2997 0.57847-0.012 1.4303 0.5436 1.5714 1.0253 0.13854 0.47237 0.0546 0.69867-0.64721 1.7483-1.7901 2.6766-3.0352 5.1359-2.8575 5.6436 0.1788 0.5109 0.64489 0.429 1.9466-0.3422 1.709-1.0121 2.7583-1.8677 4.5247-3.689 1.8853-1.9438 2.2297-2.1853 3.1435-2.2045 1.5196-0.032 2.6687 1.4994 3.1467 4.1937 0.1347 0.7587 0.28998 1.5461 0.34525 1.75 0.13553 0.5006 0.86531 0.3503 1.9697-0.095 7.9414-2.8078 16.935-2.5836 21.746-0.7801 0.41622 0.156 0.59346 0.6005 0.58884 1.1963-0.006 0.3721-8.9523-1.8684-17.692 0.5625-2.0919 0.4262-4.1614 1.1566-5.5333 1.9529-0.95586 0.5547-0.97536 0.5916-1.1728 2.2237-0.0498 0.411-0.1545 1.2758-0.23274 1.9218-0.26641 2.1977-1.0826 4.6676-2.3463 6.6522-2.2019 3.458-5.5261 6.3447-8.7828 8.6229-1.8889 1.3236-3.7756 2.0336-5.0131 2.0622-0.37908 0.01-0.60847-0.103-0.87655-0.3053zm3.9975-2.7025c4.0336-2.5326 7.7579-6.6124 9.5615-10.476 0.68939-1.5622 1.2797-3.7667 1.2619-4.7126-0.008-0.4853-0.0895-0.5838-0.47094-0.5758-0.98058 0.021-6.4125 5.0814-8.794 8.1931-2.8896 3.7757-4.5003 7.2264-3.8096 8.1618 0.32899 0.4452 0.53989 0.3898 2.2512-0.5905zm-81.929-4.3716c-0.1683-0.5055 0.13955-2.395 0.55572-3.5014 0.84708-2.2516 2.3901-4.2121 3.8476-6.1096 1.6236-2.1138 1.5992-2.8091-0.10668-2.3449-2.2539 0.6134-3.449-2.4764-3.4977-3.8621-0.0138-0.6515-0.0833-0.797-0.37423-0.7909-0.4443 0.01-1.5379 0.7029-2.067 1.1348-1.5116 1.2347-3.5788 2.1177-4.9523 2.0842-2.9928 0.079-4.1877-3.0193-4.7253-5.2086-0.7098-2.9769-1.293-5.0557-1.4947-5.3289-0.3882-0.52567-0.97374-0.26197-1.9504 0.878-1.2696 1.4818-4.6207 4.8634-5.8251 5.878-0.52079 0.4386-1.2531 1.0947-1.6271 1.4579-1.5343 1.4891-4.9789 3.7272-7.2288 4.6969-2.0726 0.7972-5.2377 1.2242-6.9055 0.2442-2.065-1.2132-3.0952-3.4298-3.0671-5.9862 0.0162-1.3459 0.31506-2.6252 0.9294-4.2507 0.78492-2.0767 2.7003-4.415 5.282-6.4486 3.4468-2.7146 7.9163-4.4663 12.253-4.3799 2.6481 0.053 5.6735 1.4517 7.3698 2.9704 0.37519 0.33598 0.80928 0.60816 0.96456 0.60486 0.31506-0.01 0.35418-0.052 2.2526-2.616 2.4772-3.3454 2.4926-3.4081 1.2184-4.941-1.9244-2.3152-2.3713-5.3818-1.4588-10.015 0.26616-1.3519 0.79489-2.7751 0.99391-2.7793 0.0691-0.001 0.24749 0.22115 0.30155 0.37086 0.22303 0.61788 0.19338 0.63902 0.0186 1.9698-0.11892 0.90818-0.19416 2.7051-0.16728 3.9932 0.0438 2.0773 0.10452 2.4731 0.54312 3.503 1.1984 2.8157 2.0077 3.1469 3.2753 1.3403 0.43566-0.62076 1.3032-1.8532 1.928-2.7388 1.6432-2.3294 4.0424-5.4104 6.4831-7.7233 2.3782-2.2537 5.3065-4.6079 8.2438-4.7158 1.582-0.0332 2.5363 0.42604 3.0053 1.4462 0.80742 1.7571 0.30371 5.1096-0.99523 7.1541-2.1307 3.3535-5.157 6.8886-8.379 8.8143-3.4762 2.0116-6.8048 2.5083-10.485 1.9842l-0.74387-0.11059-1.5574 2.1286c-0.85681 1.1707-1.9811 2.6324-2.4985 3.2482-0.51749 0.61586-0.93702 1.3016-0.93228 1.5239 0.007 0.2222 0.19194 0.8249 0.41617 1.3391 0.22439 0.5141 0.73998 2.1747 1.1461 3.69 1.0915 4.0746 1.371 4.7881 2.0869 5.3308 1.5971 1.2106 4.2814 0.069 8.1001-3.4444 0.963-0.886 3.6306-4.2665 4.3944-5.0139 0.4572-0.4475 1.011-1.0938 1.611-1.0938 0.59999 0 0.70949 0.9894 0.29177 1.6034-2.4692 3.6288-4.0054 7.9941-3.3061 9.4471 0.37363 0.7762 1.271 0.5771 2.6643-0.591 2.176-1.8242 3.1396-3.0109 4.2699-5.2575 0.58831-1.1696 1.0687-2.1731 1.0675-2.2302-0.007-0.2143 1.3896-2.6669 1.7317-3.0463 0.267-0.2962 0.51372-0.3642 0.98245-0.2712 0.91595 0.1818 1.0089 0.8475 0.35711 2.5547-1.0381 2.7185-0.40127 3.2815 1.4852 1.3135 4.9923-4.5957 9.8361-15.824 10.445-16.194 0.56957-0.34607 1.8816-0.05 1.9037 0.61476 0.048 1.3822-3.5926 7.8492-6.2646 11.368-1.3113 1.7108-3.0604 5.515-2.9351 6.3841 0.0486 0.3334 0.26376 0.5235 0.76878 0.6777 0.8418 0.257 1.0605 0.6394 1.1769 2.0589 0.12384 1.5103 0.47743 1.6918 2.0377 1.0458 0.96768-0.4008 1.7514-1.0003 3.4663-2.6519 1.999-1.9252 2.3549-2.8141 1.3578-3.3915-0.29982-0.1737-0.63414-0.5006-0.74292-0.7264-0.27761-0.577 0.28668-0.9066 1.7809-1.0404 0.65083-0.058 1.2679-0.14237 1.3712-0.18687 0.10345-0.045 0.88538-1.3761 1.7377-2.9591 2.4124-4.4805 3.9788-6.9398 4.7571-7.4686 0.54924-0.37328 1.7095 0.14309 1.7226 0.76655 0.0114 0.57436-1.3524 3.9276-2.5754 6.3287-1.6492 3.238-1.5794 3.5494 0.78438 3.4997 2.0849-0.044 3.4992 0.2845 3.2927 0.7642-0.21781 0.5063-1.427 0.8559-4.0628 1.1749-2.7045 0.3271-2.8885 0.4489-3.3907 2.2449-0.4152 1.1524-0.86305 2.2912-0.88531 3.4913-0.075 4.0247 1.9202 2.3486 0.56695 3.5571-1.885 1.02-2.2961-1.7413-2.4398-3.0565-0.22781-2.086 0.22915-3.2369-0.40968-2.91-0.19218 0-0.6489 0.3317-1.0149 0.7282-0.36575 0.3965-0.98645 0.9544-1.3793 1.2398-0.39276 0.2855-0.95381 0.7609-1.2467 1.0565-0.82075 0.828-2.1647 1.5182-3.5716 1.8338-0.70314 0.1578-1.3741 0.3768-1.4907 0.4866-0.11669 0.1098-0.37614 0.8285-0.57624 1.5971-0.65549 2.5153-1.9457 5.4568-3.151 7.1834-0.92509 1.325-1.3406 1.7388-2.1587 2.1503-1.2455 0.6264-1.9786 0.475-2.5858-0.5338-0.5817-0.9661-0.42888-2.5873 0.47707-5.0606 0.21617-0.5903 0.77405-2.1356 1.2398-3.434 0.46584-1.2984 1.2079-3.3511 1.6493-4.5616 1.3802-3.7854 0.83671-4.1895-1.8815-1.3988-1.9529 2.0045-2.1489 2.353-3.1306 5.5667-0.85381 2.7951-2.1836 6.202-3.0687 7.8615-1.1186 2.0975-2.734 4.0209-4.0314 4.5388-1.2712 0.5075-2.7812 0.9111-3.2674-0.5494zm3.5612-1.7377c0.99192-0.8952 1.5107-1.6524 2.3875-3.4855 0.95472-1.9961 1.576-3.8119 1.4385-4.2044-0.21703-0.6195-0.81715-0.2519-1.7453 1.0691-2.5817 3.6739-3.8984 6.3369-3.44 6.9576 0.31878 0.4317 0.57906 0.3672 1.3594-0.3368zm11.675-3.7877c0.81457-1.0916 1.9216-3.5972 2.4991-5.6567 0.69067-2.4627 0.78019-3.3513 0.40279-3.9957-0.35244-0.6018-0.98442-0.6734-1.1371-0.1288-0.0582 0.2062-0.56227 1.5826-1.121 3.0587-1.0858 2.8683-2.0077 5.9928-1.9918 6.7499 0.021 1.001 0.58914 0.9895 1.348-0.027zm-45.727-6.7137c1.0987-0.3508 3.9343-2.0386 5.4027-3.2156 0.36042-0.2888 1.1227-0.8863 1.6943-1.3276 1.3744-1.0615 4.7533-4.4031 7.7379-7.6522 1.5779-1.7178 1.6789-2.1412 0.74934-3.1427-1.3283-1.4311-3.4268-2.2282-6.2031-2.3562-2.3128-0.1066-4.147 0.22908-6.2448 1.1427-3.6242 1.5786-5.9693 3.3095-7.8739 5.8122-2.3821 3.1302-2.9639 6.1581-1.7124 8.9116 1.0253 2.2551 3.1905 2.8688 6.45 1.8277zm38.193-27.905c3.5414-3.6784 5.1125-6.9433 4.6275-9.6163-0.16477-0.9084-0.98562-1.5807-1.9079-1.5626-1.346 0.0265-4.1272 1.8577-6.3886 4.2064-3.3474 3.4767-9.006 10.906-8.8688 11.644 0.0996 0.53766 1.1438 0.75915 1.7882 0.73465 4.0105-0.15269 8.3291-2.9377 10.75-5.4061z" fill="#f8f8f8"/>
   <g id="g4177" transform="translate(-.15228 -2.5)">
    <path id="path4313-1" d="m17.46 979.22c3.5712 4.0267 2.4543 12.958 2.4867 20.522h1.3618s-0.33854-5.6438 0.0375-7.1202c2.2015-8.6398 15.147-4.5898 22.652 2.9712 4.2896-7.1637 16.693-7.314 22.079-6.9054l-0.25113 11.363h1.4721s-0.4864-4.5493 0.10708-6.7007c0.58546-2.1222 1.7207-3.9336 3.292-5.707 1.6832-1.8093 3.0431-5.2557 4.4552-7.8389-2.5885 1.217-8.1814 1.8577-9.8077 0.58476 2.3017-0.5775 4.0325-1.5043 5.1923-3.5086-5.7635 0.48439-10.747 0.5342-16.154 0 0.40131-1.083 2.366-1.906 4.6154-2.9238-8.4476-2.832-12.674-0.1361-14.423 0 1.5553-1.6601 4.1852-3.1033 7.5-4.0934-3.1187 0.0702-5.8881 0.00004-8.7637 0.00004-7.1187 0-13.465 1.5724-20.659 12.28-1.7198-1.7461-3.7579-2.6039-5.1923-2.9238z" fill-rule="evenodd" fill="#f8f8f8"/>
    <path id="path4327-8" d="m61.378 997.72c-5.1432 0.005-9.004 1.0577-14.119 2.3377-0.91881 0.23-2.1027 0.3618-3.1638 0.356-1.1856-0.01-2.5065-0.129-3.5309-0.4362-8.5561-2.5656-18.993-3.281-25.413-0.88705l0.57692 3.5502 1.7308 0.5917s2.3369 7.5533 3.7022 10.208c1.1022 2.1435 4.2968 3.0583 7.6384 3.1594 2.9996-0.092 10.439 0.1986 13.633-11.054 0.26319-0.9065 0.63651-1.9469 1.5644-2.3134 0.64436-0.024 1.1758 0.5244 1.6788 2.3679 2.8276 10.364 8.5097 10.887 12.37 10.946 3.628 0.055 7.5487-0.8763 8.8408-3.2443 1.3627-2.4976 2.0613-5.7957 3.6489-10.069l1.7308-0.5917 0.57692-3.5502c-4.5569-0.92841-8.3805-1.3737-11.466-1.3705zm-34.187 1.6701c4.8754 0.008 10.792 1.5679 12.476 3.9045 1.3703 1.9019 0.18681 5.9736-2.4855 8.6272-2.3106 2.2946-5.8573 3.2741-8.3012 3.1429-3.5178-0.1889-5.5755-1.0795-7.2645-3.663-1.8415-2.8167-2.1347-7.4444-1.2807-9.6001 0.67194-1.6961 3.5201-2.4169 6.856-2.4115zm33.577 0c3.3359-0.005 6.184 0.71544 6.856 2.4115 0.85395 2.1557 0.56077 6.7834-1.2807 9.6001-1.689 2.5835-3.7466 3.4741-7.2644 3.663-2.444 0.1312-5.9907-0.8483-8.3013-3.1429-2.6724-2.6536-3.855-6.7253-2.4847-8.6272 1.6835-2.3366 7.5997-3.8967 12.475-3.9045z" fill-rule="evenodd" fill="#e91e78"/>
    <g fill="#f8f8f8">
     <path id="path4329-7" d="m42.063 1028.5c6.5216 0.5065 7.4416-2.3113 9.2831-4.6475h2.4174c-2.1343 4.5323-4.7935 8.0325-11.7 4.6475z" fill-rule="evenodd"/>
     <ellipse id="circle4333-3" rx="2.1" cy="1006.2" ry="2.1" cx="31.676"/>
     <ellipse id="ellipse4230-7" rx="2.1" cy="1006.2" ry="2.1" cx="55.906"/>
    </g>
   </g>
  </g>
 </g>
</svg>
