<?xml version="1.0" encoding="UTF-8" standalone="no"?>
<svg id="svg4187" xmlns:rdf="http://www.w3.org/1999/02/22-rdf-syntax-ns#" xmlns="http://www.w3.org/2000/svg" height="60" width="210" version="1.1" xmlns:cc="http://creativecommons.org/ns#" xmlns:dc="http://purl.org/dc/elements/1.1/" viewBox="0 0 210 60">
 <title id="title4317">LyftGuy Logo</title>
 <metadata id="metadata4192">
  <rdf:RDF>
   <cc:Work rdf:about="">
    <dc:format>image/svg+xml</dc:format>
    <dc:type rdf:resource="http://purl.org/dc/dcmitype/StillImage"/>
    <dc:title>LyftGuy Logo</dc:title>
    <dc:creator>
     <cc:Agent>
      <dc:title>Shawn Rieger</dc:title>
     </cc:Agent>
    </dc:creator>
    <dc:rights>
     <cc:Agent>
      <dc:title/>
     </cc:Agent>
    </dc:rights>
   </cc:Work>
  </rdf:RDF>
 </metadata>
 <g id="layer1" transform="translate(-.000069189 -992.36)">
  <g id="g4316">
   <path id="path4337-1" d="m170.95 1052.1c-1.4362-1.4977-0.69311-4.4343 1.169-7.5769 0.89854-1.5163 4.2389-5.3592 6.6105-7.8121 1.9482-2.0149 4.6374-3.1345 6.2334-5.6459 0.2377-0.6533-0.26741-3.8555-0.65031-4.1237-0.40516-0.2837-1.0092-0.014-1.6822 0.7496-1.9277 2.1886-6.6874 5.1731-8.2759 5.1892-0.73552 0.01-0.89544-0.071-1.3224-0.6455-0.26736-0.3597-0.51267-0.8419-0.54563-1.0715-0.0926-0.6484-0.63074-0.5882-2.0913 0.234-1.6535 0.9309-3.615 1.7636-4.1821 1.7755-0.9698 0.02-1.8163-0.669-2.2108-1.8006-0.26792-0.7683-0.69345-0.697-2.5903 0.4338-2.6168 1.5601-3.7253 1.4937-4.5364-0.2715-0.29289-0.6372-0.35533-1.0062-0.27742-1.6386 0.26511-2.1499 0.067-2.309-1.4255-1.1442-2.1762 2.0652-4.6372 2.9328-6.3269 5.0316-2.8054 3.4846-3.1991 9.4572-5.9182 12.045-0.64463 0.5033-1.5617 0.9323-2.3537 0.933-0.31174 0.0003-0.53731-0.065-0.82024-0.2197-0.70335-0.3827-0.92604-1.2251-0.64985-1.9641 1.0246-2.742 5.9291-5.7754 0.46989-6.1525-2.5261-0.2038-4.0625-0.9412-5.4828-2.6313-2.1035-2.5034-2.3646-5.5919-0.85113-10.064 0.84105-2.4845 1.269-3.2795 2.1252-4.8092 4.0249-7.2673 8.5326-12.709 13.606-18.34 1.284-1.173 3.6505-3.6284 5.3379-3.6284 3.375 0 4.7447 3.5804 4.8393 6.1872 0.0846 2.3935-1.0312 8.7058-2.9594 12.662-0.26478 0-1.1365-0.9075-1.1422-1.1846-0.006-0.1295 0.32771-1.1516 0.73428-2.2713 1.724-4.7477 2.1917-9.4777 1.1625-11.754-0.41102-0.9093-1.5095-2.5143-2.6345-1.9518-4.7729 2.3863-15.933 16.811-18.974 24.849-0.84763 2.4748-1.0045 3.3387-0.95485 5.2587 0.0576 2.2236 0.43398 3.2634 1.6003 4.4198 2.2042 2.1852 6.3009-0.083 8.78-1.7381 1.9363-1.2924 2.7625-3.7591 3.8696-5.8027 0.76135-1.4055 1.4154-3.4086 1.8875-4.407 0.47227-0.9984 1.0286-2.268 1.2362-2.8215 0.36298-0.968 0.40225-1.0052 1.0271-0.9746 0.98298 0.049 1.5603 0.4296 1.6381 1.0818 0.0371 0.3072-0.0107 0.67-0.1008 0.8064-0.32187 0.4767-2.6077 6.316-2.6007 6.6437 0.0124 0.5898 0.80712 0.3518 1.8985-0.5682 2.104-1.7741 2.8998-2.491 3.7756-3.4012 2.1656-2.2512 2.9059-2.869 3.4518-2.8804 0.76573-0.016 1.5071 0.6786 1.388 1.3005-0.10609 0.5536-0.92188 2.263-1.5731 3.2962-0.60924 0.9666-1.6086 3.3739-1.5986 3.8503 0.008 0.472 0.37694 0.655 0.94838 0.4732 0.58533-0.186 4.0164-3.0432 4.8993-4.0796 0.39701-0.4662 0.89911-1.1884 1.1154-1.6047 0.34092-0.6562 0.47823-0.7581 1.0286-0.7642 0.69931-0.01 1.5848 0.6974 1.5968 1.2717 0.006 0.1826-0.38835 0.8564-0.87171 1.4972-0.88375 1.1715-1.8078 3.2292-1.7016 3.7894 0.13905 0.7328 0.60255 0.7341 1.9527 0.01 2.4964-1.3468 4.32-2.9912 6.6712-6.0157 1.1139-1.4326 1.7924-2.1508 2.0369-2.1559 0.54232-0.011 1.341 0.5096 1.4732 0.9612 0.12988 0.4428 0.0512 0.655-0.60676 1.639-1.6782 2.5093-2.8455 4.815-2.6789 5.2909 0.16762 0.479 0.60459 0.4022 1.8249-0.3208 1.6022-0.9489 2.5859-1.751 4.2419-3.4584 1.7675-1.8224 2.0903-2.0488 2.947-2.0668 1.4246-0.03 2.5019 1.4057 2.95 3.9316 0.12629 0.7113 0.27186 1.4495 0.32367 1.6407 0.12707 0.4693 0.81123 0.3284 1.8466-0.089 7.445-2.6323 15.877-2.4222 20.387-0.7314 0.3902 0.1463 0.55636 0.563 0.55204 1.1216-0.005 0.3488-8.3928-1.7516-16.586 0.5273-1.9611 0.3996-3.9013 1.0844-5.1875 1.8309-0.89613 0.52-0.9144 0.5546-1.0995 2.0848-0.0466 0.3852-0.14484 1.196-0.21819 1.8016-0.24976 2.0603-1.0149 4.3759-2.1997 6.2365-2.0643 3.2419-5.1807 5.9482-8.2338 8.084-1.7709 1.2409-3.5396 1.9065-4.6998 1.9333-0.35539 0.01-0.57044-0.097-0.82177-0.2862zm3.7477-2.5336c3.7814-2.3743 7.273-6.1991 8.9639-9.8213 0.6463-1.4646 1.1997-3.5313 1.183-4.4181-0.008-0.455-0.0839-0.5473-0.44151-0.5398-0.91929 0.02-6.0117 4.7638-8.2444 7.6811-2.709 3.5397-4.219 6.7748-3.5715 7.6517 0.30843 0.4174 0.50614 0.3655 2.1105-0.5536zm-76.808-4.0984c-0.15778-0.4739 0.13082-2.2453 0.52099-3.2826 0.79414-2.1109 2.2407-3.9488 3.6071-5.7278 1.5221-1.9816 1.4992-2.6335-0.10001-2.1983-2.113 0.5751-3.2334-2.3217-3.2791-3.6207-0.0129-0.6108-0.0781-0.7473-0.35084-0.7415-0.41654 0.01-1.4418 0.659-1.9379 1.0639-1.4171 1.1575-3.3552 1.9853-4.6428 1.9539-2.8058 0.074-3.9259-2.8306-4.4299-4.8831-0.66544-2.7909-1.2122-4.7398-1.4013-4.9959-0.36394-0.4927-0.91288-0.2455-1.8285 0.8231-1.1903 1.3893-4.3319 4.5595-5.461 5.5107-0.48824 0.4112-1.1748 1.0263-1.5254 1.3668-1.4384 1.3961-4.6677 3.4943-6.777 4.4034-1.9431 0.7473-4.9103 1.1477-6.4739 0.2289-1.936-1.1373-2.9018-3.2155-2.8754-5.6121 0.01519-1.2617 0.29537-2.4611 0.87132-3.985 0.73586-1.9469 2.5315-4.139 4.9519-6.0456 3.2313-2.545 7.4215-4.1872 11.487-4.1062 2.4826 0.049 5.3189 1.361 6.9092 2.7848 0.35174 0.315 0.7587 0.5702 0.90428 0.5671 0.29537-0.01 0.33205-0.049 2.1118-2.4526 2.3224-3.1363 2.3368-3.1951 1.1423-4.6322-1.8042-2.1705-2.2231-5.0454-1.3677-9.3892 0.24953-1.2674 0.74521-2.6016 0.93179-2.6056 0.0648-0.00075 0.23202 0.20735 0.2827 0.34765 0.20908 0.5793 0.18129 0.5991 0.0174 1.8467-0.11149 0.8515-0.18202 2.5361-0.15682 3.7437 0.04102 1.9474 0.09799 2.3185 0.50918 3.284 1.1235 2.6398 1.8822 2.9503 3.0706 1.2566 0.40843-0.582 1.2217-1.7374 1.8075-2.5677 1.5405-2.1838 3.7898-5.0723 6.0779-7.2407 2.2295-2.1128 4.9748-4.3199 7.7286-4.421 1.4831-0.0311 2.3778 0.39941 2.8174 1.3558 0.75695 1.6473 0.28473 4.7903-0.93303 6.707-1.9975 3.144-4.8347 6.4581-7.8553 8.2634-3.259 1.8859-6.3795 2.3516-9.8297 1.8602l-0.69738-0.1036-1.4601 1.9955c-0.80326 1.0976-1.8573 2.4679-2.3423 3.0452-0.48515 0.5774-0.87846 1.2203-0.87401 1.4286 0.0067 0.2083 0.17994 0.7734 0.39016 1.2554 0.21037 0.482 0.69373 2.0388 1.0745 3.4594 1.0232 3.8199 1.2853 4.4889 1.9564 4.9977 1.4973 1.1349 4.0138 0.065 7.5938-3.2292 0.90281-0.8306 3.4037-3.9998 4.1197-4.7005 0.42863-0.4195 0.94783-1.0255 1.5103-1.0255 0.56249 0 0.66515 0.9276 0.27354 1.5033-2.3149 3.4019-3.7551 7.4944-3.0995 8.8566 0.35027 0.7277 1.1916 0.5411 2.4978-0.5541 2.04-1.7102 2.9434-2.8227 4.003-4.9289 0.55154-1.0965 1.0019-2.0373 1.0008-2.0908-0.007-0.201 1.3027-2.5002 1.6235-2.8559 0.25031-0.2777 0.48161-0.3415 0.92104-0.2543 0.85871 0.1704 0.94584 0.7946 0.3348 2.395-0.97318 2.5486-0.3762 3.0765 1.3924 1.2315 4.6803-4.3085 9.2213-14.835 9.7923-15.182 0.53398-0.3244 1.764-0.047 1.7847 0.5764 0.045 1.2958-3.3681 7.3587-5.873 10.658-1.2294 1.6039-2.8692 5.1703-2.7517 5.9851 0.0455 0.3125 0.24728 0.4907 0.72074 0.6353 0.78918 0.2409 0.99421 0.5994 1.1033 1.9302 0.1161 1.416 0.44759 1.5862 1.9103 0.9805 0.9072-0.3757 1.6419-0.9378 3.2497-2.4862 1.874-1.8048 2.2078-2.6382 1.2729-3.1795-0.28109-0.1629-0.59451-0.4693-0.69649-0.681-0.26026-0.5409 0.26876-0.8499 1.6696-0.9754 0.61016-0.054 1.1886-0.1334 1.2855-0.1752 0.097-0.042 0.83004-1.2901 1.6291-2.7742 2.2617-4.2005 3.7302-6.5061 4.4598-7.0019 0.51491-0.3499 1.6027 0.1342 1.6149 0.7187 0.0107 0.5385-1.2679 3.6822-2.4145 5.9332-1.5461 3.0356-1.4807 3.3275 0.73536 3.2809 1.9546-0.041 3.2805 0.2667 3.0869 0.7164-0.2042 0.4747-1.3379 0.8025-3.8089 1.1016-2.5355 0.3066-2.708 0.4208-3.1787 2.1046-0.38925 1.0803-0.80912 2.148-0.82998 3.2731-0.0703 3.7731 1.8002 2.2018 0.53152 3.3348-1.7672 0.9562-2.1526-1.6325-2.2874-2.8655-0.21358-1.9556 0.21483-3.0347-0.38408-2.7281-0.18017 0-0.60835 0.3109-0.95148 0.6826-0.34289 0.3717-0.9248 0.8948-1.2931 1.1624-0.36821 0.2676-0.89419 0.7133-1.1688 0.9904-0.76945 0.7763-2.0294 1.4233-3.3484 1.7192-0.65919 0.148-1.2882 0.3532-1.3975 0.4562-0.1094 0.1029-0.35263 0.7767-0.54023 1.4973-0.61452 2.3581-1.8241 5.1158-2.9541 6.7345-0.86727 1.2422-1.2568 1.6301-2.0238 2.0159-1.1676 0.5873-1.855 0.4453-2.4242-0.5005-0.54534-0.9057-0.40207-2.4256 0.44726-4.7443 0.20265-0.5534 0.72567-2.0021 1.1623-3.2194 0.43673-1.2172 1.1324-3.1417 1.5463-4.2765 1.2939-3.5489 0.78441-3.9277-1.764-1.3114-1.8308 1.8792-2.0146 2.2059-2.9349 5.2189-0.80044 2.6203-2.0471 5.8144-2.8769 7.3701-1.0487 1.9664-2.5632 3.7697-3.7794 4.2551-1.1918 0.4758-2.6074 0.8542-3.0632-0.515zm3.3387-1.6291c0.92992-0.8392 1.4163-1.5491 2.2382-3.2677 0.89505-1.8713 1.4775-3.5737 1.3486-3.9416-0.20346-0.5808-0.76608-0.2362-1.6363 1.0023-2.4203 3.4442-3.6547 5.9409-3.225 6.5228 0.29885 0.4047 0.54286 0.3442 1.2744-0.3158zm10.945-3.551c0.76366-1.0234 1.8015-3.3724 2.3429-5.3031 0.6475-2.3089 0.73143-3.142 0.37761-3.7461-0.33041-0.5641-0.92289-0.6313-1.066-0.1207-0.0545 0.1933-0.52712 1.4837-1.0509 2.8675-1.0179 2.6891-1.8822 5.6183-1.8673 6.3281 0.0197 0.9384 0.55231 0.9277 1.2638-0.025zm-42.869-6.2941c1.03-0.3289 3.6884-1.9112 5.065-3.0147 0.3379-0.2707 1.0526-0.8309 1.5884-1.2446 1.2885-0.9952 4.4563-4.128 7.2542-7.1739 1.4793-1.6105 1.574-2.0074 0.7025-2.9463-1.2453-1.3417-3.2126-2.0889-5.8154-2.2089-2.1683-0.1-3.8878 0.2147-5.8545 1.0713-3.3977 1.4799-5.5962 3.1027-7.3818 5.4489-2.2332 2.9346-2.7787 5.7733-1.6054 8.3547 0.9612 2.1142 2.9911 2.6895 6.0469 1.7135zm35.806-26.162c3.3201-3.4486 4.793-6.5094 4.3383-9.0154-0.15447-0.85163-0.92402-1.4819-1.7886-1.4649-1.2619 0.0248-3.8692 1.7416-5.9893 3.9436-3.1382 3.2593-8.4431 10.224-8.3145 10.916 0.09337 0.5041 1.0723 0.7117 1.6764 0.6888 3.7598-0.1432 7.8086-2.7542 10.078-5.0682z" fill="#dcdcdc"/>
   <path id="path4313-1" d="m2.1635 1001.1c3.348 3.775 2.3009 12.149 2.3313 19.24h1.2767s-0.31738-5.2911 0.035156-6.6752c2.0639-8.0999 14.2-4.3029 21.236 2.7854 4.0215-6.7159 15.65-6.8569 20.699-6.4738l-0.23544 10.653h1.3801s-0.456-4.2651 0.10039-6.2819c0.54887-1.9897 1.6132-3.6878 3.0863-5.3504 1.578-1.6962 2.8529-4.9273 4.1768-7.349-2.4267 1.1409-7.67 1.7416-9.1947 0.5482 2.1579-0.5414 3.7805-1.4103 4.8678-3.2893-5.4033 0.45412-10.075 0.50082-15.144 0 0.37623-1.0153 2.2181-1.7869 4.3269-2.7411-7.9196-2.655-11.881-0.12759-13.522 0 1.4581-1.5563 3.9236-2.9093 7.0313-3.8375-2.9238 0.0658-5.5201 0.00003-8.216 0.00003-6.6738 0-12.623 1.4741-19.368 11.513-1.6123-1.637-3.523-2.4412-4.8678-2.7411z" fill-rule="evenodd" fill="#dcdcdc"/>
   <path id="path4327-8" d="m43.337 1018.5c-4.8218 0.01-8.4413 0.9916-13.236 2.1917-0.86138 0.2156-1.9713 0.3391-2.9661 0.3337-1.1115-0.01-2.3498-0.121-3.3102-0.409-8.0214-2.4052-17.806-3.0759-23.824-0.8316l0.54086 3.3283 1.6226 0.5547s2.1909 7.0813 3.4708 9.5705c1.0333 2.0095 4.0283 2.8672 7.161 2.962 2.8122-0.086 9.7869 0.1861 12.781-10.364 0.24674-0.8499 0.59673-1.8253 1.4666-2.1689 0.60409-0.023 1.1023 0.4917 1.5739 2.22 2.6509 9.7159 7.9778 10.207 11.597 10.262 3.4012 0.052 7.0769-0.8216 8.2882-3.0416 1.2776-2.3415 1.9325-5.4335 3.4209-9.4399l1.6226-0.5547 0.54086-3.3283c-4.2721-0.8703-7.8567-1.2878-10.75-1.2848zm-32.05 1.5657c4.5707 0.01 10.118 1.47 11.696 3.6606 1.2847 1.783 0.17513 5.6002-2.3302 8.088-2.1662 2.1512-5.4912 3.0695-7.7824 2.9465-3.298-0.1771-5.227-1.0121-6.8104-3.4341-1.7264-2.6407-2.0012-6.9791-1.2007-9.0002 0.62995-1.5901 3.3001-2.2658 6.4275-2.2608zm31.479 0c3.1274-0.01 5.7975 0.6707 6.4275 2.2608 0.80058 2.0211 0.52572 6.3595-1.2007 9.0002-1.5834 2.422-3.5125 3.257-6.8104 3.4341-2.2912 0.123-5.6163-0.7953-7.7824-2.9465-2.5053-2.4878-3.6141-6.305-2.3295-8.088 1.5782-2.1906 7.1247-3.6532 11.695-3.6606z" fill-rule="evenodd" fill="#e91e78"/>
   <g fill="#dcdcdc">
    <path id="path4329-7" d="m25.229 1047.3c6.114 0.4748 6.9765-2.1669 8.7029-4.3571h2.2663c-2.0009 4.2491-4.4939 7.5305-10.969 4.3571z" fill-rule="evenodd"/>
    <ellipse id="circle4333-3" cy="1026.4" rx="1.9687" ry="1.9688" cx="15.491"/>
    <ellipse id="ellipse4230-7" rx="1.9687" cy="1026.4" ry="1.9688" cx="38.207"/>
   </g>
  </g>
 </g>
</svg>
