<?xml version="1.0" encoding="UTF-8" standalone="no"?>
<svg id="svg4149" xmlns:rdf="http://www.w3.org/1999/02/22-rdf-syntax-ns#" xmlns="http://www.w3.org/2000/svg" height="60" width="174" version="1.1" xmlns:cc="http://creativecommons.org/ns#" xmlns:dc="http://purl.org/dc/elements/1.1/" viewBox="0 0 174 60">
 <metadata id="metadata4154">
  <rdf:RDF>
   <cc:Work rdf:about="">
    <dc:format>image/svg+xml</dc:format>
    <dc:type rdf:resource="http://purl.org/dc/dcmitype/StillImage"/>
    <dc:title/>
   </cc:Work>
  </rdf:RDF>
 </metadata>
 <g id="layer1" transform="translate(-192.88 -723.35)">
  <g id="g4215" transform="matrix(.080028 0 0 .080165 177.45 720.55)">
   <path id="path4337-1" d="m1954.1 626.8c-15.19-15.842-7.3306-46.903 12.364-80.144 9.5034-16.039 44.833-56.686 69.917-82.632 20.606-21.312 49.048-33.155 65.928-59.718 2.5142-6.9102-2.8284-40.782-6.878-43.618-4.2855-3.0004-10.674-0.15295-17.792 7.9275-20.388 23.15-70.73 54.718-87.531 54.889-7.7796 0.0796-9.4709-0.74638-13.987-6.8274-2.8277-3.8046-5.4224-8.9044-5.7709-11.333-0.9792-6.8593-6.671-6.2228-22.119 2.4747-17.488 9.8458-38.234 18.654-44.233 18.78-10.257 0.21591-19.21-7.0757-23.383-19.046-2.8339-8.1269-7.3346-7.373-27.396 4.5876-27.677 16.502-39.401 15.8-47.98-2.871-3.0979-6.7394-3.7583-10.643-2.9343-17.332 2.8039-22.74 0.7092-24.423-15.077-12.103-23.018 21.844-49.046 31.02-66.918 53.221-29.671 36.858-33.835 100.03-62.595 127.41-6.818 5.324-16.518 9.8601-24.894 9.8683-3.2972 0.002-5.6829-0.69526-8.6755-2.3235-7.4389-4.0474-9.7944-12.959-6.8733-20.774 10.837-29.004 62.71-61.089 4.9703-65.078-26.718-2.1552-42.968-9.9552-57.99-27.832-22.248-26.478-25.01-59.147-9.002-106.44 8.8954-26.281 13.421-34.689 22.478-50.869 42.57-76.867 90.246-134.43 143.91-193.99 13.581-12.407 38.61-38.379 56.457-38.379 35.696 0 50.183 37.871 51.184 65.444 0.8942 25.318-10.907 92.084-31.3 133.93-2.8004-0.0433-12.02-9.5998-12.081-12.53-0.06-1.3705 3.466-12.182 7.7662-24.026 18.234-50.217 23.181-100.25 12.295-124.33-4.3473-9.6176-15.965-26.594-27.864-20.645-50.482 25.241-168.52 177.81-200.68 262.83-8.9653 26.178-10.624 35.315-10.099 55.622 0.609 23.522 4.5899 34.52 16.926 46.751 23.312 23.114 66.642-0.88135 92.863-18.384 20.48-13.671 29.218-39.761 40.927-61.378 8.0525-14.866 14.97-36.053 19.963-46.613 4.995-10.56 10.879-23.99 13.074-29.844 3.8391-10.238 4.2543-10.632 10.864-10.308 10.397 0.51058 16.503 4.5426 17.325 11.442 0.3926 3.2482-0.1141 7.0862-1.0662 8.5293-3.4041 5.0414-27.581 66.806-27.507 70.273 0.1314 6.2369 8.5366 3.7199 20.08-6.0121 22.253-18.764 30.671-26.348 39.933-35.975 22.905-23.811 30.735-30.345 36.509-30.467 8.0989-0.1703 15.94 7.1775 14.68 13.756-1.122 5.8552-9.7504 23.937-16.638 34.864-6.4437 10.225-17.014 35.687-16.908 40.727 0.089 4.9916 3.9866 6.927 10.03 5.0052 6.1911-1.9674 42.48-32.189 51.818-43.153 4.1993-4.9311 9.5096-12.569 11.797-16.974 3.6058-6.9399 5.0582-8.0178 10.879-8.0823 7.3964-0.0816 16.761 7.3762 16.889 13.451 0.059 1.9322-4.1073 9.0586-9.2198 15.836-9.347 12.391-19.121 34.158-17.997 40.082 1.4705 7.751 6.3728 7.7652 20.653 0.06 26.404-14.246 45.691-31.638 70.558-63.629 11.782-15.153 18.958-22.75 21.544-22.804 5.7357-0.1185 14.183 5.3901 15.581 10.167 1.3738 4.6839 0.5414 6.9289-6.4175 17.336-17.75 26.543-30.096 50.93-28.334 55.964 1.7729 5.0652 6.3946 4.2529 19.302-3.3932 16.946-10.037 27.35-18.522 44.866-36.582 18.694-19.275 22.108-21.67 31.169-21.86 15.067-0.31696 26.462 14.869 31.201 41.587 1.3357 7.5228 2.8753 15.332 3.4234 17.353 1.3439 4.9642 8.5803 3.4739 19.531-0.93881 78.744-27.843 167.92-25.62 215.63-7.7361 4.1271 1.5471 5.8844 5.954 5.8388 11.863-0.059 3.6893-88.767-18.527-175.42 5.5772-20.742 4.2267-41.263 11.47-54.866 19.366-9.4778 5.5014-9.6712 5.8666-11.629 22.051-0.4938 4.0761-1.532 12.652-2.3076 19.058-2.6416 21.792-10.734 46.285-23.265 65.965-21.833 34.291-54.795 62.916-87.086 85.508-18.73 13.125-37.437 20.165-49.708 20.449-3.7588 0.087-6.0334-1.0213-8.6916-3.0273zm39.638-26.799c39.995-25.115 76.924-65.57 94.808-103.88 6.8359-15.491 12.69-37.352 12.513-46.73-0.084-4.8135-0.8877-5.7898-4.6695-5.7103-9.7231 0.20452-63.584 50.388-87.198 81.244-28.652 37.442-44.623 71.66-37.775 80.935 3.262 4.4153 5.3532 3.8663 22.322-5.8549zm-812.38-43.35c-1.6687-5.0126 1.3839-23.75 5.5104-34.722 8.3993-22.326 23.699-41.768 38.152-60.584 16.099-20.961 15.857-27.856-1.0578-23.252-22.349 6.0824-34.199-24.557-34.682-38.298-0.1369-6.4601-0.8258-7.903-3.7107-7.8424-4.4055 0.0897-15.249 6.9694-20.496 11.254-14.988 12.242-35.486 20.999-49.105 20.667-29.676 0.77925-41.523-29.941-46.854-51.65-7.0381-29.52-12.821-50.134-14.821-52.844-3.8493-5.2126-9.6553-2.5982-19.34 8.7072-12.589 14.694-45.817 48.227-57.759 58.287-5.164 4.3498-12.425 10.855-16.134 14.457-15.213 14.767-49.369 36.961-71.678 46.576-20.552 7.9053-51.935 12.14-68.472 2.4223-20.476-12.031-30.691-34.012-30.412-59.362 0.16064-13.346 3.124-26.033 9.2156-42.151 7.783-20.593 26.775-43.781 52.375-63.945 34.177-26.919 78.495-44.29 121.49-43.433 26.258 0.52301 56.257 14.395 73.076 29.456 3.7202 3.3311 8.0246 6.03 9.5642 5.9976 3.1241-0.0645 3.512-0.51651 22.336-25.941 24.563-33.174 24.716-33.796 12.081-48.997-19.082-22.958-23.512-53.367-14.465-99.312 2.6392-13.406 7.8818-27.519 9.8552-27.56 0.6847-0.01091 2.4541 2.193 2.9901 3.6776 2.2114 6.1271 1.9175 6.3368 0.1844 19.533-1.1791 9.0059-1.9252 26.825-1.6587 39.597 0.4343 20.599 1.0364 24.524 5.3854 34.737 11.883 27.922 19.907 31.206 32.476 13.291 4.3199-6.1553 12.921-18.377 19.117-27.159 16.294-23.099 40.083-53.652 64.284-76.587 23.581-22.348 52.617-45.694 81.742-46.763 15.686-0.32884 25.149 4.2248 29.799 14.341 8.0061 17.424 3.0116 50.669-9.8682 70.942-21.127 33.255-51.135 68.309-83.082 87.406-34.469 19.947-67.474 24.873-103.97 19.676l-7.376-1.0966-15.443 21.107c-8.4958 11.609-19.644 26.104-24.774 32.21-5.1313 6.1061-9.2911 12.906-9.2441 15.11 0.065 2.2038 1.9032 8.1797 4.1265 13.278 2.225 5.0986 7.3374 21.565 11.364 36.592 10.822 40.404 13.594 47.48 20.692 52.861 15.836 12.005 42.453 0.68619 80.317-34.156 9.5488-8.7868 36-42.308 43.573-49.72 4.5334-4.4368 10.025-10.847 15.974-10.847 5.9494 0 7.0351 9.8123 2.8932 15.9-24.484 35.984-39.716 79.272-32.782 93.68 3.7047 7.6973 12.603 5.7238 26.418-5.8601 21.576-18.089 31.131-29.857 42.339-52.136 5.8334-11.597 10.596-21.549 10.584-22.114-0.065-2.1246 13.779-26.446 17.171-30.208 2.6475-2.9365 5.0939-3.6116 9.7415-2.689 9.0823 1.8026 10.004 8.403 3.5411 25.333-10.293 26.957-3.9789 32.541 14.726 13.024 49.502-45.572 97.53-156.92 103.57-160.59 5.6477-3.4319 18.657-0.49326 18.876 6.096 0.4759 13.706-35.623 77.835-62.117 112.73-13.002 16.965-30.346 54.688-29.104 63.307 0.4819 3.3058 2.6154 5.1912 7.623 6.72 8.3469 2.5485 10.516 6.3413 11.67 20.416 1.2278 14.977 4.7337 16.777 20.205 10.371 9.5952-3.9744 17.366-9.9188 34.371-26.298 19.821-19.091 23.351-27.905 13.464-33.631-2.973-1.722-6.288-4.9633-7.3666-7.2031-2.7528-5.7211 2.8426-8.9904 17.659-10.317 6.4531-0.57828 12.572-1.4118 13.596-1.8534 1.0255-0.44187 8.7788-13.646 17.23-29.343 23.921-44.429 39.453-68.816 47.17-74.061 5.4462-3.7007 16.951 1.4193 17.081 7.6019 0.114 5.6957-13.41 38.947-25.537 62.757-16.353 32.108-15.661 35.196 7.7776 34.703 20.673-0.4343 34.697 2.8203 32.649 7.5787-2.1596 5.0197-14.15 8.4864-40.285 11.649-26.817 3.245-28.641 4.4528-33.62 22.262-4.117 11.428-8.5578 22.72-8.7784 34.621-0.7437 39.911 19.04 23.29 5.6217 35.273-18.691 10.116-22.767-17.267-24.193-30.308-2.2588-20.685 2.2721-32.098-4.0622-28.856-1.9056 0.0431-6.4343 3.2895-10.063 7.2209-3.6267 3.9315-9.7814 9.4641-13.676 12.295-3.8944 2.8304-9.4575 7.5443-12.362 10.475-8.138 8.2114-21.465 15.056-35.415 18.186-6.9719 1.5648-13.625 3.7361-14.781 4.8249-1.1571 1.0888-3.7296 8.2154-5.7138 15.837-6.4997 24.943-19.293 54.111-31.244 71.232-9.1728 13.14-13.293 17.244-21.405 21.324-12.35 6.2111-19.619 4.7103-25.64-5.2933-5.768-9.58-4.2527-25.656 4.7303-50.183 2.1435-5.8533 7.6753-21.177 12.293-34.052 4.6191-12.875 11.977-33.231 16.354-45.235 13.685-37.536 8.2963-41.543-18.657-13.871-19.364 19.878-21.308 23.334-31.042 55.202-8.466 27.717-21.652 61.5-30.428 77.956-11.091 20.799-27.11 39.872-39.974 45.008-12.605 5.0323-27.577 9.0349-32.398-5.4481zm35.312-17.232c9.8355-8.8768 14.979-16.386 23.673-34.564 9.4666-19.793 15.627-37.799 14.264-41.692-2.1519-6.1431-8.1025-2.4981-17.306 10.602-25.599 36.431-38.655 62.838-34.11 68.993 3.1609 4.2816 5.7418 3.6422 13.479-3.3394zm115.76-37.559c8.0768-10.825 19.053-35.671 24.78-56.094 6.8484-24.421 7.736-33.232 3.9938-39.622-3.4946-5.9684-9.7611-6.6783-11.275-1.2776-0.5771 2.045-5.5752 15.694-11.115 30.331-10.766 28.442-19.907 59.425-19.75 66.933 0.2082 9.9257 5.8416 9.8117 13.366-0.27151zm-453.34-66.58c10.894-3.4798 39.011-20.216 53.571-31.887 3.5738-2.8645 11.133-8.7889 16.8-13.165 13.628-10.526 47.132-43.662 76.726-75.881 15.646-17.034 16.648-21.232 7.4302-31.163-13.171-14.191-33.979-22.095-61.508-23.364-22.933-1.0569-41.12 2.271-61.921 11.332-35.936 15.652-59.189 32.817-78.075 57.634-23.62 31.04-29.389 61.066-16.98 88.369 10.166 22.363 31.636 28.448 63.956 18.125zm378.74-276.71c35.116-36.476 50.694-68.852 45.885-95.358-1.6337-9.008-9.7731-15.675-18.918-15.495-13.346 0.26286-40.924 18.421-63.347 41.712-33.192 34.476-89.3 108.14-87.94 115.46 0.9876 5.3312 11.341 7.5278 17.731 7.2846 39.766-1.5137 82.588-29.131 106.59-53.608z" fill="#c11e66"/>
   <path id="path4313-1" d="m215.77 127.67c35.411 39.928 24.336 128.49 24.657 203.49h13.503s-3.3568-55.962 0.37183-70.601c21.83-85.67 150.19-45.511 224.61 29.461 42.534-71.033 165.53-72.523 218.92-68.472l-2.4902 112.68h14.597s-4.823-45.11 1.0618-66.442c5.8052-21.044 17.062-39.004 32.643-56.589 16.69-17.94 30.175-52.114 44.176-77.728-25.667 12.067-81.124 18.42-97.249 5.7982 22.823-5.7262 39.985-14.916 51.485-34.79-57.149 4.803-106.56 5.297-160.18 0 3.9792-10.739 23.46-18.899 45.764-28.992-83.763-28.081-125.67-1.3495-143.01 0 15.421-16.461 41.499-30.771 74.368-40.588-30.924 0.69652-58.385 0.000379-86.898 0.000379-70.587 0-133.51 15.591-204.85 121.76-17.053-17.314-37.262-25.819-51.485-28.992z" fill-rule="evenodd" fill="#dfdfdf"/>
   <path id="path4327-8" d="m651.24 311.11c-50.999 0.0541-89.281 10.488-140 23.181-9.1106 2.2802-20.85 3.5869-31.372 3.5297-11.756-0.0649-24.854-1.2793-35.012-4.3253-84.84-25.44-188.33-32.533-251.98-8.7958l5.7206 35.202 17.162 5.8668s23.172 74.897 36.71 101.22c10.929 21.255 42.606 30.325 75.74 31.328 29.743-0.91611 103.51 1.969 135.18-109.61 2.6097-8.989 6.3114-19.305 15.512-22.94 6.3893-0.24068 11.658 5.1998 16.646 23.479 28.038 102.76 84.379 107.96 122.66 108.53 35.974 0.54199 74.851-8.6891 87.662-32.169 13.512-24.766 20.44-57.468 36.181-99.842l17.162-5.8668 5.7206-35.202c-45.17-9.21-83.09-13.62-113.69-13.59zm-338.98 16.56c48.343 0.0768 107.01 15.548 123.71 38.717 13.588 18.858 1.8523 59.232-24.646 85.544-22.911 22.752-58.079 32.465-82.312 31.163-34.882-1.8733-55.285-10.704-72.032-36.321-18.259-27.93-21.167-73.816-12.699-95.191 6.6628-16.818 34.904-23.965 67.982-23.912zm332.94 0c33.077-0.0541 61.319 7.0942 67.981 23.912 8.4675 21.376 5.5604 67.262-12.699 95.191-16.748 25.617-37.15 34.448-72.032 36.321-24.233 1.3015-59.402-8.4117-82.312-31.163-26.498-26.313-38.225-66.686-24.638-85.544 16.693-23.169 75.356-38.639 123.7-38.717z" fill-rule="evenodd" fill="#c11e66"/>
   <g fill="#dfdfdf">
    <path id="path4329-7" d="m459.72 616.42c64.666 5.0227 73.788-22.917 92.048-46.083h23.97c-21.163 44.941-47.531 79.647-116.02 46.083z" fill-rule="evenodd"/>
    <ellipse id="circle4333-3" cy="394.83" rx="20.823" ry="20.823" cx="356.72"/>
    <ellipse id="ellipse4230-7" rx="20.823" cy="394.83" ry="20.823" cx="596.99"/>
   </g>
   <path id="path4755" d="m776.65 611.8c1.466-0.20053 2.9206-0.52111 4.3981-0.60158 5.5061-0.2999 11.029-0.12785 16.539-0.34268 16.005-0.62399 32-1.0855 48.013-1.4818 49.491-0.37329 99.032-0.52124 148.52 0.62236 46.284 1.0696 73.589 2.6726 120.65 4.903 171.65 9.5521 342.71 27.666 513.51 46.832 157.8 17.748 315.64 35.224 473.33 53.977 53.091 6.0208 106.17 12.164 159.15 19.16l-69.187 48.485c-48.677-10.57-97.685-19.593-146.86-27.51-18.287-3.014-36.551-6.172-54.861-9.0418-134.98-21.155-270.62-37.972-406.36-53.27-31.98-3.462-63.932-7.1822-95.939-10.386-59.567-5.9625-127.19-11.571-186.98-16.142-79.809-6.1026-159.7-11.279-239.74-13.181-22.136-0.4235-44.269-1.0414-66.408-1.2703-72-0.7444-144.01 1.4091-215.86 6.0399-24.877 1.7889-49.746 3.7098-74.577 6.0095l72.675-52.801z" fill="#0eb1d2"/>
  </g>
 </g>
</svg>
