<?xml version="1.0" encoding="UTF-8" standalone="no"?>
<svg id="svg4187" xmlns:rdf="http://www.w3.org/1999/02/22-rdf-syntax-ns#" xmlns="http://www.w3.org/2000/svg" height="60" width="210" version="1.1" xmlns:cc="http://creativecommons.org/ns#" xmlns:dc="http://purl.org/dc/elements/1.1/" viewBox="0 0 210 60">
 <title id="title4317">LyftGuy Logo</title>
 <metadata id="metadata4192">
  <rdf:RDF>
   <cc:Work rdf:about="">
    <dc:format>image/svg+xml</dc:format>
    <dc:type rdf:resource="http://purl.org/dc/dcmitype/StillImage"/>
    <dc:title>LyftGuy Logo</dc:title>
    <dc:creator>
     <cc:Agent>
      <dc:title>Shawn Rieger</dc:title>
     </cc:Agent>
    </dc:creator>
    <dc:rights>
     <cc:Agent>
      <dc:title/>
     </cc:Agent>
    </dc:rights>
   </cc:Work>
  </rdf:RDF>
 </metadata>
 <g id="layer1" transform="translate(-.000069189 -992.36)">
  <g id="g4267" transform="matrix(0.75 0 0 0.75 .000017297 263.09)">
   <path id="path4337-1" d="m227.94 1052c-1.9149-1.9969-0.92415-5.9124 1.5586-10.102 1.198-2.0217 5.6519-7.1455 8.814-10.416 2.5976-2.6866 6.1832-4.1794 8.3111-7.5279 0.31693-0.871-0.35655-5.1406-0.86709-5.4982-0.54021-0.3783-1.3456-0.019-2.2429 0.9994-2.5703 2.9181-8.9165 6.8975-11.035 6.919-0.9807 0.013-1.1939-0.094-1.7632-0.8607-0.35648-0.4796-0.68355-1.1225-0.7275-1.4287-0.1235-0.8645-0.84099-0.7843-2.7884 0.312-2.2046 1.2412-4.82 2.3515-5.5762 2.3674-1.2931 0.027-2.4217-0.892-2.9478-2.4008-0.35723-1.0244-0.9246-0.9294-3.4537 0.5783-3.4891 2.0802-4.967 1.9917-6.0486-0.3619-0.39052-0.8496-0.47377-1.3416-0.3699-2.1849 0.35348-2.8665 0.0894-3.0786-1.9006-1.5255-2.9017 2.7536-6.1829 3.9103-8.4359 6.7088-3.7405 4.6461-4.2654 12.61-7.8909 16.06-0.85951 0.6711-2.0823 1.243-3.1383 1.244-0.41566 0.0003-0.71641-0.087-1.0937-0.2929-0.93779-0.5103-1.2347-1.6335-0.86646-2.6188 1.3662-3.656 7.9055-7.7006 0.62652-8.2033-3.3681-0.2717-5.4167-1.2549-7.3104-3.5084-2.8046-3.3378-3.1529-7.4558-1.1348-13.418 1.1214-3.3127 1.6919-4.3727 2.8337-6.4123 5.3666-9.6896 11.377-16.946 18.141-24.454 1.712-1.564 4.8673-4.8378 7.1172-4.8378 4.5 0 6.3263 4.7738 6.4524 8.2495 0.11275 3.1914-1.375 11.608-3.9458 16.883-0.35304 0-1.5153-1.21-1.523-1.5794-0.008-0.1727 0.43695-1.5355 0.97904-3.0285 2.2987-6.3301 2.9222-12.637 1.55-15.672-0.54802-1.2124-2.0126-3.3523-3.5126-2.6024-6.3639 3.1818-21.244 22.414-25.299 33.131-1.1302 3.2997-1.3393 4.4516-1.2731 7.0115 0.0768 2.9648 0.57863 4.3512 2.1338 5.8931 2.9389 2.9136 8.4012-0.1113 11.707-2.3174 2.5818-1.7232 3.6833-5.0122 5.1594-7.737 1.0151-1.874 1.8872-4.5447 2.5166-5.8759 0.6297-1.3312 1.3714-3.024 1.6482-3.762 0.48398-1.2906 0.53633-1.3403 1.3695-1.2994 1.3106 0.065 2.0804 0.5727 2.1841 1.4424 0.0495 0.4095-0.0143 0.8933-0.13439 1.0752-0.42916 0.6355-3.4769 8.4212-3.4676 8.8582 0.0165 0.7863 1.0762 0.469 2.5313-0.7577 2.8053-2.3654 3.8665-3.3213 5.0341-4.5349 2.8875-3.0015 3.8746-3.8252 4.6024-3.8405 1.021-0.021 2.0095 0.9048 1.8506 1.734-0.14145 0.7382-1.2292 3.0174-2.0975 4.3949-0.81232 1.2888-2.1448 4.4985-2.1314 5.1337 0.0112 0.6293 0.50258 0.8733 1.2645 0.631 0.78045-0.248 5.3552-4.0576 6.5324-5.4395 0.52935-0.6216 1.1988-1.5845 1.4872-2.1396 0.45457-0.8749 0.63765-1.0108 1.3714-1.0189 0.93241-0.013 2.113 0.9299 2.1291 1.6956 0.008 0.2435-0.51781 1.1419-1.1623 1.9963-1.1783 1.5619-2.4104 4.3056-2.2688 5.0525 0.1854 0.977 0.8034 0.9787 2.6036 0.012 3.3285-1.7958 5.7599-3.9883 8.8949-8.0209 1.4852-1.9101 2.3899-2.8677 2.7159-2.8746 0.72309-0.015 1.7879 0.6795 1.9642 1.2817 0.17318 0.5904 0.0683 0.8733-0.80901 2.1853-2.2376 3.3457-3.794 6.4199-3.5718 7.0545 0.2235 0.6386 0.80612 0.5362 2.4332-0.4278 2.1362-1.2651 3.4478-2.3346 5.6559-4.6112 2.3567-2.4298 2.7871-2.7316 3.9293-2.7556 1.8994-0.04 3.3358 1.8742 3.9334 5.2421 0.16838 0.9484 0.36248 1.9326 0.43156 2.1875 0.16942 0.6257 1.0816 0.4379 2.4621-0.1188 9.9267-3.5097 21.169-3.2295 27.183-0.9751 0.52027 0.195 0.74182 0.7506 0.73605 1.4954-0.007 0.4651-11.19-2.3355-22.115 0.7031-2.6148 0.5328-5.2017 1.4458-6.9167 2.4411-1.1948 0.6934-1.2192 0.7395-1.466 2.7797-0.0622 0.5137-0.19312 1.5947-0.29092 2.4022-0.33302 2.7471-1.3532 5.8345-2.9329 8.3153-2.7524 4.3225-6.9077 7.9308-10.978 10.779-2.3612 1.6545-4.7195 2.542-6.2664 2.5777-0.47385 0.013-0.76059-0.1287-1.0957-0.3816zm4.9969-3.3781c5.0419-3.1658 9.6974-8.2655 11.952-13.095 0.86174-1.9528 1.5997-4.7084 1.5774-5.8908-0.01-0.6066-0.11188-0.7297-0.58868-0.7197-1.2257 0.026-8.0156 6.3517-10.992 10.241-3.612 4.7196-5.6254 9.033-4.7621 10.202 0.41124 0.5565 0.67486 0.4873 2.814-0.7381zm-102.41-5.4645c-0.21038-0.6319 0.17443-2.9938 0.69465-4.3768 1.0588-2.8145 2.9876-5.2651 4.8095-7.637 2.0295-2.6422 1.999-3.5113-0.13335-2.9311-2.8174 0.7668-4.3112-3.0955-4.3721-4.8276-0.0172-0.8144-0.10413-0.9963-0.46779-0.9886-0.55538 0.013-1.9224 0.8786-2.5838 1.4185-1.8895 1.5433-4.4735 2.6471-6.1904 2.6052-3.741 0.099-5.2346-3.7741-5.9066-6.5107-0.88725-3.7212-1.6162-6.3197-1.8684-6.6612-0.48525-0.657-1.2172-0.3274-2.438 1.0975-1.587 1.8523-5.7759 6.0793-7.2813 7.3475-0.65099 0.5483-1.5664 1.3684-2.0339 1.8224-1.9178 1.8614-6.2236 4.659-9.036 5.8711-2.5908 0.9965-6.5471 1.5303-8.6318 0.3053-2.5813-1.5165-3.869-4.2873-3.8339-7.4828 0.02025-1.6823 0.39383-3.2815 1.1618-5.3133 0.98114-2.5959 3.3754-5.5187 6.6026-8.0607 4.3084-3.3933 9.8954-5.5829 15.316-5.4749 3.3102 0.066 7.0919 1.8146 9.2122 3.713 0.46899 0.42 1.0116 0.7602 1.2057 0.7561 0.39383-0.013 0.44273-0.065 2.8157-3.2701 3.0965-4.1817 3.1158-4.2601 1.523-6.1762-2.4056-2.894-2.9641-6.7272-1.8236-12.519 0.3327-1.6899 0.99361-3.4689 1.2424-3.4741 0.0864-0.001 0.30936 0.27644 0.37694 0.46358 0.27878 0.77235 0.24172 0.79877 0.0232 2.4622-0.14865 1.1352-0.2427 3.3814-0.2091 4.9915 0.0547 2.5966 0.13065 3.0914 0.6789 4.3787 1.498 3.5197 2.5096 3.9336 4.0941 1.6754 0.54457-0.77595 1.6289-2.3165 2.41-3.4235 2.054-2.9117 5.053-6.763 8.1038-9.6542 2.9727-2.8171 6.6331-5.7599 10.305-5.8947 1.9774-0.0415 3.1704 0.53255 3.7566 1.8078 1.0093 2.1963 0.37964 6.387-1.244 8.9426-2.6633 4.1919-6.4463 8.6108-10.474 11.018-4.3453 2.5145-8.506 3.1354-13.106 2.4802l-0.92984-0.1382-1.9468 2.6607c-1.071 1.4634-2.4764 3.2905-3.1231 4.0602-0.64687 0.7699-1.1713 1.6271-1.1654 1.9049 0.009 0.2777 0.23992 1.0311 0.52021 1.6738 0.28049 0.6427 0.92497 2.7184 1.4326 4.6125 1.3643 5.0932 1.7137 5.9851 2.6086 6.6635 1.9963 1.5132 5.3518 0.086 10.125-4.3055 1.2038-1.1075 4.5382-5.3331 5.4929-6.2673 0.5715-0.5594 1.2638-1.3673 2.0138-1.3673 0.74999 0 0.88687 1.2368 0.36472 2.0043-3.0865 4.5359-5.0068 9.9925-4.1327 11.809 0.46703 0.9702 1.5888 0.7214 3.3304-0.7388 2.72-2.2802 3.9246-3.7636 5.3374-6.5718 0.73538-1.462 1.3358-2.7164 1.3344-2.7878-0.009-0.2679 1.737-3.3336 2.1646-3.8078 0.33375-0.3703 0.64215-0.4553 1.2281-0.339 1.1449 0.2272 1.2611 1.0594 0.44639 3.1933-1.2976 3.3981-0.50159 4.1019 1.8565 1.6419 6.2404-5.7446 12.295-19.78 13.056-20.243 0.71197-0.43258 2.352-0.0625 2.3796 0.76845 0.06 1.7278-4.4908 9.8115-7.8307 14.21-1.6391 2.1385-3.8255 6.8937-3.6689 7.9801 0.0607 0.4167 0.3297 0.6543 0.96098 0.8471 1.0522 0.3212 1.3256 0.7992 1.4711 2.5736 0.1548 1.8879 0.59679 2.1148 2.5471 1.3073 1.2096-0.501 2.1892-1.2504 4.3329-3.3149 2.4987-2.4065 2.9437-3.5176 1.6972-4.2394-0.37478-0.2171-0.79268-0.6257-0.92865-0.908-0.34702-0.7212 0.35835-1.1332 2.2262-1.3005 0.81354-0.072 1.5848-0.1779 1.714-0.2336 0.12931-0.056 1.1067-1.7201 2.1721-3.6989 3.0156-5.6006 4.9736-8.6747 5.9464-9.3358 0.68655-0.4666 2.1369 0.17885 2.1532 0.95815 0.0142 0.718-1.6905 4.9096-3.2193 7.9109-2.0615 4.0475-1.9742 4.4367 0.98048 4.3746 2.6062-0.055 4.374 0.3556 4.1159 0.9552-0.27226 0.6329-1.7838 1.0699-5.0785 1.4687-3.3806 0.4088-3.6106 0.5611-4.2383 2.8061-0.519 1.4405-1.0788 2.864-1.1066 4.3641-0.0937 5.0309 2.4002 2.9358 0.70869 4.4464-2.3563 1.275-2.8701-2.1766-3.0498-3.8206-0.28476-2.6075 0.28644-4.0462-0.5121-3.6375-0.24023 0-0.81113 0.4146-1.2686 0.9102-0.45719 0.4956-1.2331 1.193-1.7241 1.5498-0.49095 0.3568-1.1923 0.9511-1.5583 1.3206-1.0259 1.035-2.7059 1.8977-4.4645 2.2922-0.87893 0.1973-1.7176 0.471-1.8634 0.6083-0.14586 0.1372-0.47017 1.0356-0.7203 1.9964-0.81936 3.1441-2.4321 6.821-3.9388 8.9792-1.1564 1.6563-1.6757 2.1735-2.6984 2.6879-1.5568 0.783-2.4733 0.5937-3.2323-0.6673-0.72712-1.2076-0.5361-3.2341 0.59634-6.3257 0.27021-0.7379 0.96756-2.6695 1.5497-4.2925 0.5823-1.623 1.5099-4.1889 2.0617-5.702 1.7252-4.7318 1.0459-5.2369-2.3519-1.7485-2.4411 2.5056-2.6861 2.9412-3.9132 6.9584-1.0673 3.4938-2.7295 7.7525-3.8359 9.8268-1.3982 2.6219-3.4175 5.0262-5.0392 5.6735-1.589 0.6344-3.4765 1.1389-4.0842-0.6867zm4.4516-2.1721c1.2399-1.119 1.8884-2.0655 2.9843-4.3569 1.1934-2.4951 1.97-4.7649 1.7981-5.2555-0.27129-0.7744-1.0214-0.3149-2.1817 1.3364-3.2271 4.5923-4.873 7.9211-4.3 8.697 0.39847 0.5396 0.72382 0.459 1.6992-0.421zm14.593-4.7347c1.0182-1.3645 2.402-4.4965 3.1238-7.0708 0.86333-3.0784 0.97523-4.1892 0.50348-4.9947-0.44055-0.7522-1.2305-0.8417-1.4214-0.161-0.0727 0.2578-0.70283 1.9783-1.4012 3.8234-1.3572 3.5854-2.5096 7.491-2.4897 8.4374 0.0263 1.2512 0.73642 1.2369 1.685-0.034zm-57.158-8.3921c1.3733-0.4385 4.9179-2.5482 6.7534-4.0195 0.45053-0.361 1.4034-1.1079 2.1178-1.6595 1.718-1.3269 5.9417-5.5039 9.6723-9.5652 1.9724-2.1472 2.0986-2.6764 0.93667-3.9283-1.6604-1.7889-4.2835-2.7852-7.7539-2.9452-2.891-0.1333-5.1837 0.2863-7.8059 1.4284-4.5302 1.9732-7.4616 4.1369-9.8424 7.2652-2.9777 3.9127-3.7049 7.6976-2.1405 11.14 1.2816 2.8189 3.9881 3.586 8.0625 2.2846zm47.742-34.882c4.4268-4.5981 6.3907-8.6791 5.7844-12.02-0.20596-1.1355-1.232-1.9759-2.3849-1.9532-1.6825 0.0331-5.159 2.3221-7.9857 5.2581-4.1843 4.3458-11.258 13.632-11.086 14.555 0.1245 0.67208 1.4297 0.94894 2.2352 0.91832 5.0131-0.19087 10.411-3.6722 13.437-6.7576z" fill="#e91e78"/>
   <path id="path4313-1" d="m2.8847 984.06c4.464 5.0334 3.0679 16.198 3.1084 25.653h1.7023s-0.42317-7.0548 0.046875-8.9002c2.7519-10.8 18.933-5.7372 28.315 3.7139 5.362-8.9546 20.867-9.1425 27.598-8.6318l-0.31392 14.204h1.8401s-0.608-5.6867 0.13385-8.3758c0.73182-2.6529 2.1509-4.917 4.115-7.1338 2.104-2.2616 3.8039-6.5697 5.569-9.7986-3.2357 1.5212-10.227 2.3221-12.26 0.73095 2.8772-0.72187 5.0406-1.8804 6.4904-4.3857-7.2044 0.60548-13.434 0.66775-20.192 0 0.50164-1.3537 2.9574-2.3825 5.7692-3.6548-10.559-3.54-15.842-0.17012-18.029 0 1.9441-2.0751 5.2315-3.8791 9.375-5.1167-3.8984 0.0877-7.3601 0.00005-10.955 0.00005-8.8984 0-16.831 1.9655-25.824 15.35-2.1498-2.1826-4.6974-3.2549-6.4904-3.6548z" fill-rule="evenodd" fill="#dcdcdc"/>
   <path id="path4327-8" d="m57.782 1007.2c-6.4291 0.01-11.255 1.3221-17.648 2.9222-1.1485 0.2875-2.6284 0.4522-3.9548 0.445-1.482-0.013-3.1331-0.1613-4.4137-0.5453-10.695-3.207-23.742-4.1012-31.766-1.1088l0.72115 4.4377 2.1634 0.7396s2.9212 9.4416 4.6278 12.76c1.3778 2.6794 5.3711 3.8229 9.548 3.9493 3.7496-0.115 13.049 0.2482 17.042-13.818 0.32898-1.1332 0.79564-2.4337 1.9555-2.8918 0.80545-0.03 1.4697 0.6555 2.0985 2.9599 3.5345 12.954 10.637 13.609 15.462 13.682 4.535 0.069 9.4359-1.0954 11.051-4.0554 1.7034-3.122 2.5767-7.2446 4.5611-12.586l2.1634-0.7396 0.72115-4.4377c-5.6962-1.1605-10.476-1.7171-14.333-1.7131zm-42.733 2.0876c6.0942 0.01 13.491 1.9599 15.595 4.8807 1.7129 2.3774 0.23351 7.467-3.1069 10.784-2.8883 2.8682-7.3216 4.0926-10.377 3.9286-4.3973-0.2361-6.9693-1.3494-9.0806-4.5787-2.3018-3.5209-2.6683-9.3055-1.6009-12 0.83993-2.1201 4.4001-3.0211 8.57-3.0144zm41.972 0c4.1698-0.01 7.73 0.8943 8.5699 3.0144 1.0674 2.6947 0.70096 8.4793-1.6009 12-2.1112 3.2293-4.6833 4.3426-9.0805 4.5787-3.0549 0.164-7.4884-1.0604-10.377-3.9286-3.3405-3.317-4.8187-8.4066-3.1059-10.784 2.1043-2.9208 9.4997-4.8709 15.594-4.8807z" fill-rule="evenodd" fill="#e91e78"/>
   <g fill="#dcdcdc">
    <path id="path4329-7" d="m33.639 1045.7c8.152 0.6331 9.302-2.8892 11.604-5.8094h3.0217c-2.6678 5.6654-5.9919 10.041-14.626 5.8094z" fill-rule="evenodd"/>
    <ellipse id="circle4333-3" cy="1017.7" rx="2.625" ry="2.625" cx="20.654"/>
    <ellipse id="ellipse4230-7" rx="2.625" cy="1017.7" ry="2.625" cx="50.943"/>
   </g>
  </g>
 </g>
</svg>
