<?xml version="1.0" encoding="UTF-8" standalone="no"?>
<svg id="svg4187" xmlns:rdf="http://www.w3.org/1999/02/22-rdf-syntax-ns#" xmlns="http://www.w3.org/2000/svg" height="75" width="200" version="1.1" xmlns:cc="http://creativecommons.org/ns#" xmlns:dc="http://purl.org/dc/elements/1.1/" viewBox="0 0 200 75">
 <title id="title4317">LyftGuy Logo</title>
 <metadata id="metadata4192">
  <rdf:RDF>
   <cc:Work rdf:about="">
    <dc:format>image/svg+xml</dc:format>
    <dc:type rdf:resource="http://purl.org/dc/dcmitype/StillImage"/>
    <dc:title>LyftGuy Logo</dc:title>
    <dc:creator>
     <cc:Agent>
      <dc:title>Shawn Rieger</dc:title>
     </cc:Agent>
    </dc:creator>
    <dc:rights>
     <cc:Agent>
      <dc:title/>
     </cc:Agent>
    </dc:rights>
   </cc:Work>
  </rdf:RDF>
 </metadata>
 <g id="layer1" transform="translate(-81.25 -977.36)">
  <path id="path4337-1" d="m228.86 1052c-1.9269-1.9969-0.92996-5.9124 1.5685-10.103 1.2056-2.0217 5.6874-7.1455 8.8694-10.416 2.614-2.6866 6.2221-4.1794 8.3634-7.5279 0.31892-0.871-0.35879-5.1406-0.87255-5.4982-0.5436-0.3783-1.3541-0.019-2.257 0.9994-2.5864 2.9181-8.9725 6.8975-11.104 6.919-0.98686 0.013-1.2014-0.094-1.7743-0.8607-0.35872-0.4796-0.68784-1.1225-0.73207-1.4287-0.12428-0.8645-0.84628-0.7843-2.806 0.312-2.2185 1.2412-4.8503 2.3515-5.6112 2.3674-1.3012 0.027-2.4369-0.892-2.9663-2.4008-0.35948-1.0244-0.93042-0.9294-3.4754 0.5783-3.511 2.0802-4.9983 1.9917-6.0866-0.3619-0.39297-0.8496-0.47675-1.3416-0.37222-2.1849 0.3557-2.8665 0.09-3.0786-1.9126-1.5255-2.9199 2.7536-6.2218 3.9103-8.4889 6.7088-3.764 4.6462-4.2923 12.61-7.9405 16.06-0.86491 0.6711-2.0954 1.243-3.158 1.244-0.41827 0.0003-0.72091-0.087-1.1005-0.2929-0.94368-0.5103-1.2425-1.6335-0.87191-2.6188 1.3748-3.656 7.9552-7.7006 0.63047-8.2033-3.3893-0.2717-5.4508-1.2549-7.3564-3.5085-2.8223-3.3378-3.1727-7.4558-1.142-13.418 1.1284-3.3127 1.7026-4.3727 2.8515-6.4123 5.4003-9.6897 11.448-16.946 18.256-24.454 1.7228-1.564 4.8979-4.8378 7.162-4.8378 4.5283 0 6.366 4.7738 6.493 8.2496 0.11346 3.1914-1.3836 11.608-3.9707 16.883-0.35526 0-1.5248-1.21-1.5325-1.5794-0.008-0.1727 0.4397-1.5356 0.9852-3.0286 2.3132-6.3301 2.9406-12.637 1.5597-15.672-0.55147-1.2124-2.0253-3.3523-3.5347-2.6024-6.4039 3.1818-21.377 22.414-25.458 33.131-1.1373 3.2998-1.3477 4.4517-1.2811 7.0116 0.0773 2.9648 0.58227 4.3512 2.1472 5.8931 2.9574 2.9137 8.454-0.1113 11.78-2.3174 2.598-1.7232 3.7065-5.0122 5.1918-7.737 1.0215-1.8741 1.899-4.5448 2.5325-5.876 0.63366-1.3312 1.3801-3.024 1.6586-3.762 0.48702-1.2906 0.5397-1.3403 1.3781-1.2994 1.3189 0.065 2.0935 0.5727 2.1978 1.4424 0.0498 0.4095-0.0144 0.8933-0.13524 1.0752-0.43186 0.6355-3.4988 8.4213-3.4894 8.8583 0.0166 0.7863 1.0829 0.469 2.5472-0.7577 2.823-2.3655 3.8908-3.3214 5.0658-4.535 2.9057-3.0015 3.8989-3.8252 4.6314-3.8405 1.0274-0.021 2.0221 0.9048 1.8623 1.734-0.14234 0.7382-1.2369 3.0174-2.1106 4.3949-0.81743 1.2889-2.1583 4.4986-2.1448 5.1338 0.0113 0.6293 0.50574 0.8733 1.2724 0.631 0.78536-0.248 5.3889-4.0576 6.5735-5.4396 0.53267-0.6216 1.2064-1.5845 1.4965-2.1396 0.45743-0.8749 0.64166-1.0108 1.3801-1.0189 0.93827-0.013 2.1263 0.9299 2.1425 1.6956 0.008 0.2435-0.52107 1.1419-1.1696 1.9963-1.1858 1.562-2.4256 4.3057-2.283 5.0526 0.18656 0.977 0.80845 0.9787 2.6199 0.012 3.3494-1.7958 5.7962-3.9883 8.9508-8.021 1.4946-1.9101 2.4049-2.8677 2.733-2.8746 0.72764-0.015 1.7992 0.6795 1.9766 1.2817 0.17427 0.5904 0.0687 0.8733-0.81409 2.1853-2.2517 3.3458-3.8178 6.42-3.5943 7.0546 0.22491 0.6386 0.81119 0.5362 2.4486-0.4278 2.1497-1.2651 3.4695-2.3346 5.6915-4.6113 2.3715-2.4298 2.8046-2.7316 3.954-2.7556 1.9114-0.04 3.3568 1.8742 3.9581 5.2422 0.16944 0.9484 0.36476 1.9326 0.43428 2.1875 0.17048 0.6257 1.0884 0.4379 2.4776-0.1188 9.9892-3.5097 21.302-3.2295 27.354-0.9751 0.52354 0.195 0.74649 0.7506 0.74068 1.4954-0.007 0.4651-11.261-2.3355-22.254 0.7031-2.6313 0.5328-5.2344 1.4458-6.9602 2.4411-1.2024 0.6934-1.2269 0.7395-1.4752 2.7797-0.0626 0.5137-0.19434 1.5947-0.29275 2.4022-0.33512 2.7472-1.3618 5.8346-2.9513 8.3154-2.7697 4.3225-6.9511 7.9309-11.047 10.779-2.376 1.6545-4.7491 2.542-6.3058 2.5777-0.47683 0.013-0.76538-0.1287-1.1026-0.3816zm5.0283-3.3781c5.0736-3.1659 9.7584-8.2656 12.027-13.095 0.86716-1.9528 1.6097-4.7085 1.5873-5.8909-0.0101-0.6066-0.11259-0.7297-0.59239-0.7197-1.2334 0.026-8.066 6.3518-11.062 10.242-3.6347 4.7196-5.6608 9.0331-4.792 10.202 0.41383 0.5565 0.67911 0.4873 2.8316-0.7381zm-103.06-5.4646c-0.2117-0.6319 0.17553-2.9938 0.69902-4.3768 1.0655-2.8145 3.0064-5.2651 4.8398-7.6371 2.0423-2.6422 2.0116-3.5113-0.13419-2.9311-2.8351 0.7668-4.3383-3.0955-4.3996-4.8276-0.0173-0.8144-0.10479-0.9963-0.47074-0.9886-0.55887 0.013-1.9345 0.8786-2.6001 1.4185-1.9014 1.5433-4.5017 2.6471-6.2293 2.6052-3.7646 0.099-5.2675-3.7741-5.9437-6.5107-0.89283-3.7213-1.6264-6.3198-1.8802-6.6613-0.48831-0.657-1.2248-0.3274-2.4534 1.0975-1.597 1.8523-5.8122 6.0794-7.3271 7.3476-0.65508 0.5483-1.5762 1.3684-2.0467 1.8224-1.9299 1.8614-6.2628 4.659-9.0928 5.8711-2.6071 0.9965-6.5883 1.5303-8.6861 0.3053-2.5975-1.5165-3.8934-4.2873-3.858-7.4828 0.02038-1.6823 0.3963-3.2815 1.1691-5.3134 0.98731-2.5959 3.3966-5.5187 6.6441-8.0607 4.3355-3.3933 9.9576-5.583 15.412-5.475 3.331 0.066 7.1365 1.8147 9.2702 3.7131 0.47194 0.42 1.018 0.7602 1.2133 0.7561 0.3963-0.013 0.44551-0.065 2.8334-3.2701 3.116-4.1818 3.1354-4.2602 1.5326-6.1763-2.4207-2.894-2.9827-6.7272-1.835-12.519 0.33479-1.6899 0.99986-3.4689 1.2502-3.4741 0.0869-0.001 0.31131 0.27645 0.37931 0.46359 0.28053 0.77235 0.24324 0.79877 0.0233 2.4623-0.14959 1.1352-0.24423 3.3814-0.21042 4.9915 0.0551 2.5966 0.13147 3.0914 0.68317 4.3787 1.5074 3.5197 2.5254 3.9337 4.1199 1.6754 0.548-0.77595 1.6392-2.3165 2.4251-3.4236 2.0669-2.9117 5.0848-6.7631 8.1548-9.6542 2.9914-2.8171 6.6748-5.76 10.37-5.8948 1.9899-0.0415 3.1903 0.53255 3.7802 1.8078 1.0156 2.1964 0.38203 6.3871-1.2519 8.9427-2.6801 4.192-6.4868 8.6108-10.54 11.018-4.3726 2.5145-8.5595 3.1354-13.189 2.4802l-0.93569-0.1382-1.959 2.6608c-1.0777 1.4634-2.492 3.2905-3.1427 4.0602-0.65094 0.7699-1.1786 1.6271-1.1727 1.9049 0.009 0.2777 0.24143 1.0311 0.52348 1.6738 0.28226 0.6427 0.93079 2.7184 1.4416 4.6125 1.3729 5.0933 1.7245 5.9852 2.625 6.6636 2.0089 1.5132 5.3854 0.086 10.189-4.3055 1.2113-1.1076 4.5668-5.3332 5.5275-6.2674 0.5751-0.5594 1.2717-1.3673 2.0264-1.3673 0.75471 0 0.89245 1.2368 0.36701 2.0043-3.1059 4.5359-5.0383 9.9926-4.1586 11.809 0.46997 0.9702 1.5988 0.7214 3.3513-0.7388 2.7371-2.2802 3.9492-3.7636 5.371-6.5719 0.74-1.462 1.3442-2.7164 1.3427-2.7878-0.009-0.2679 1.7479-3.3336 2.1782-3.8078 0.33585-0.3703 0.64619-0.4553 1.2358-0.339 1.1521 0.2272 1.269 1.0594 0.4492 3.1933-1.3057 3.3981-0.50475 4.102 1.8682 1.6419 6.2796-5.7446 12.372-19.78 13.139-20.243 0.71645-0.43259 2.3668-0.0625 2.3946 0.76845 0.0604 1.7278-4.519 9.8116-7.8799 14.21-1.6494 2.1385-3.8496 6.8937-3.692 7.9802 0.0611 0.4167 0.33177 0.6543 0.96702 0.8471 1.0589 0.3212 1.334 0.7992 1.4804 2.5736 0.15577 1.8879 0.60054 2.1148 2.5631 1.3073 1.2172-0.501 2.203-1.2504 4.3602-3.3149 2.5144-2.4066 2.9622-3.5177 1.7079-4.2395-0.37714-0.2171-0.79767-0.6257-0.9345-0.908-0.3492-0.7212 0.36061-1.1332 2.2402-1.3005 0.81865-0.072 1.5948-0.1779 1.7247-0.2336 0.13012-0.056 1.1137-1.7201 2.1857-3.6989 3.0345-5.6007 5.0048-8.6748 5.9838-9.3358 0.69087-0.4666 2.1503 0.17883 2.1668 0.95813 0.0143 0.718-1.7011 4.9097-3.2395 7.911-2.0745 4.0475-1.9866 4.4367 0.98665 4.3746 2.6226-0.055 4.4015 0.3556 4.1418 0.9552-0.27398 0.6329-1.795 1.0699-5.1104 1.4687-3.4019 0.4088-3.6334 0.5611-4.265 2.8062-0.52227 1.4405-1.0856 2.864-1.1136 4.3641-0.0943 5.0309 2.4153 2.9358 0.71314 4.4464-2.3711 1.275-2.8882-2.1766-3.069-3.8206-0.28655-2.6075 0.28824-4.0462-0.51532-3.6375-0.24174 0-0.81623 0.4146-1.2766 0.9102-0.46006 0.4956-1.2408 1.193-1.7349 1.5498-0.49404 0.3568-1.1998 0.9511-1.5681 1.3206-1.0324 1.035-2.7229 1.8977-4.4926 2.2922-0.88446 0.1973-1.7284 0.471-1.8751 0.6083-0.14678 0.1372-0.47313 1.0356-0.72483 1.9964-0.82452 3.1441-2.4474 6.8211-3.9636 8.9793-1.1636 1.6563-1.6863 2.1735-2.7153 2.6879-1.5666 0.783-2.4888 0.5937-3.2526-0.6673-0.73169-1.2076-0.53947-3.2341 0.60009-6.3257 0.27191-0.7379 0.97365-2.6696 1.5595-4.2926 0.58596-1.623 1.5194-4.1889 2.0746-5.702 1.7361-4.7318 1.0525-5.2369-2.3667-1.7485-2.4564 2.5056-2.703 2.9412-3.9378 6.9584-1.074 3.4939-2.7466 7.7526-3.86 9.8269-1.407 2.6219-3.439 5.0262-5.071 5.6735-1.599 0.6344-3.4984 1.1389-4.1099-0.6867zm4.4796-2.1721c1.2477-1.119 1.9002-2.0655 3.0031-4.3569 1.2009-2.4951 1.9823-4.7649 1.8094-5.2556-0.27299-0.7744-1.0279-0.3149-2.1954 1.3365-3.2474 4.5923-4.9036 7.9211-4.327 8.697 0.40097 0.5396 0.72837 0.459 1.7099-0.421zm14.685-4.7347c1.0246-1.3645 2.4171-4.4965 3.1435-7.0709 0.86876-3.0784 0.98136-4.1892 0.50664-4.9947-0.44332-0.7522-1.2383-0.8417-1.4303-0.161-0.0731 0.2578-0.70725 1.9783-1.41 3.8234-1.3658 3.5854-2.5254 7.4911-2.5054 8.4375 0.0265 1.2512 0.74105 1.2369 1.6956-0.034zm-57.518-8.3922c1.382-0.4385 4.9488-2.5482 6.7959-4.0195 0.45336-0.361 1.4122-1.1079 2.1312-1.6595 1.7288-1.3269 5.979-5.504 9.7332-9.5653 1.9848-2.1472 2.1118-2.6764 0.94256-3.9283-1.6708-1.7889-4.3104-2.7852-7.8026-2.9452-2.9092-0.1333-5.2163 0.2863-7.855 1.4284-4.5587 1.9732-7.5085 4.1369-9.9043 7.2652-2.9964 3.9128-3.7282 7.6977-2.154 11.14 1.2897 2.8189 4.0132 3.586 8.1132 2.2846zm48.042-34.882c4.4546-4.5981 6.4309-8.6792 5.8208-12.021-0.20725-1.1355-1.2398-1.9759-2.3999-1.9532-1.6931 0.0331-5.1914 2.3221-8.0359 5.2581-4.2106 4.3459-11.328 13.632-11.156 14.555 0.12528 0.67209 1.4387 0.94895 2.2493 0.91833 5.0446-0.19087 10.477-3.6722 13.522-6.7576z" fill="#333"/>
 </g>
</svg>
