<?xml version="1.0" encoding="UTF-8" standalone="no"?>
<svg id="svg2" xmlns:rdf="http://www.w3.org/1999/02/22-rdf-syntax-ns#" xmlns="http://www.w3.org/2000/svg" height="140" viewBox="0 0 238 140" width="238" version="1.1" xmlns:cc="http://creativecommons.org/ns#" xmlns:dc="http://purl.org/dc/elements/1.1/">
 <metadata id="metadata8">
  <rdf:RDF>
   <cc:Work rdf:about="">
    <dc:format>image/svg+xml</dc:format>
    <dc:type rdf:resource="http://purl.org/dc/dcmitype/StillImage"/>
    <dc:title/>
   </cc:Work>
  </rdf:RDF>
 </metadata>
 <g id="g4164" fill="#1e1e1e" transform="matrix(1.7473 0 0 1.75 -28.901 -16.884)">
  <path id="path4158" d="m53.375 10.919c-0.8761-0.04234-1.8625 0.07647-2.9227 0.34715-10.323 2.3606-24.81 5.5202-33.025 7.5613-1.6229 0.4032-0.82475 3.6717 0.83727 4.1307 2.1524 0.5944 12.187-2.7268 18.284-3.2785 1.2018-0.10873 0.96569 0.38679 0.46342 1.5037-4.038 8.8681-14.567 30.771-15.931 34.711-0.92305 2.6668 2.2846 5.0006 3.2498 2.8669 8.2274-18.187 9.1205-20.981 19.096-40.748 2.4583-0.63313 5.6793-1.6548 8.4389-1.4569 0.28101 0.28146 0.21258 0.91823-0.19277 1.7904-2.3544 8.1862-13.247 35.476-13.209 39.133 0.06032 2.5287 2.0503 2.425 2.9655 0.90494 3.1607-5.2497 5.7856-9.8063 11.227-13.04-0.33227 3.2226-1.6513 6.3306-0.92489 9.7593 0.73855 3.2119 2.9814 5.4486 6.8851 4.8757 1.1271-0.14834 3.6427-0.87765 4.4258-1.2833 3.8138-0.35939 8.3027 2.0023 11.163-2.3482-1.9704-0.6516-4.1424-0.23626-5.7947-1.3945 1.8937-2.5608 4.7909-4.8016 5.5435-8.3512 1.632-7.6972-6.8763-6.759-10.349-1.1507-1.5756 2.5446-1.7678 5.8787-2.3288 8.5111-0.40627 0.40534-2.1555 1.082-3.3569 1.2989-1.2592 0.22734-1.622-0.3054-1.622-2.393 0.1019-4.1291 2.624-8.0037 2.763-12.46 0.000437-3.3308-3.6738-3.5388-6.2075-1.5505-2.3063 1.4007-3.9232 3.9113-6.3749 5.1917 1.3214-5.9557 9.2197-21.739 10.809-28.139 0.35291-3.2861-1.2816-4.8658-3.9099-4.9928zm16.222 33.744c1.4392 0.8312-1.6059 6.1266-3.8865 7.3312 0.70129-2.7933 2.4473-8.1624 3.8865-7.3312z"/>
  <path id="path4140" d="m82.539 12.161c-0.72616 1.1785-0.14816 3.684 1.326 3.0425 4.7198-2.0539 6.9689-2.1218 10.809-2.2105 4.6387-0.10715 12.662 2.2913 12.959 5.5849 0.5286 5.8618-10.02 8.7404-14.02 10.03-0.26259-3.5436 2.0334-8.5153 3.0726-11.713 0.87171-2.6828-3.2374-3.9578-4.126-2.1531-3.8021 13.929-10.782 26.402-10.411 38.345 0.17197 5.5342 5.916 5.6438 9.724 5.9913 1.59 0.14511 23.306 1.4272 29.863-4.1444 1.141 3.3542 3.0086 4.3813 5.5669 4.3726 5.1438-0.01758 7.2822-7.3812 8.2052-8.632-1.3988 7.7882 4.3546 7.2549 2.8156 8.2127-5.5066 3.427-20.34 9.9228-21.498 18.941-0.25429 8.8061 8.1503 12.89 14.644 11.581 7.3572-1.5066 12.764-6.2491 14.857-13.336 1.7533-6.1494-0.0358-14.2-1.7996-17.069 4.0764-2.3965 4.4339-2.7612 6.7066-4.3374 0.75166-0.5213 0.26624-1.9153-0.6397-1.7733-1.3546 0.62338-1.6937 0.93332-6.5735 3.4773 5.3645-5.7927 7.5371-15.856 7.5371-15.856s-1.3795-0.53255-2.0074 0.0489c-0.33467 0.30993-0.3896 1.6337-0.3896 1.6337s-0.0589-1.7142-1.796-2.3481c-2.1828-0.79653-4.9924-0.4078-6.6884 1.964-2.6333 3.6824-3.6886 5.4654-4.2233 5.0454-0.69665-0.54715 0.80497-5.0707-3.6236-6.8475-4.5328-1.8186-8.097 4.6855-10.622 8.8524-1.0817 1.6094-3.1526 3.7327-3.7969 2.9079-0.70991-0.94269-0.66565-1.4349 0.23365-2.5217 4.8381-6.7829 9.2898-18.863 8.8926-24.644-0.3301-4.804-3.6574-4.3048-5.7966-1.4296-3.2121 4.3172-6.4234 17.132-7.0545 23.46-0.0242 0.1889-0.30533 0.40531-0.58805 0.39006-0.3034-0.01637-0.57032-0.26686-0.51988-0.46612 1.6351-8.2993-4.6766-16.839-13.151-16.63 3.3617-1.6842 10.696-5.2802 10.968-9.8624 0.68-11.553-21.575-12.372-28.861-7.908zm41.854 13.543c1.1927 0.4328-4.2734 17.684-5.413 17.182-1.1396-0.50179 4.408-17.547 5.413-17.182zm-26.269 6.7656c5.4582-0.24771 11.415 3.4066 12.648 9.4464 0.72663 3.1658-0.42901 6.2124-2.9063 8.7849-4.3348 3.6761-12.058 5.6637-19.489 4.6885-3.6669-0.48125-3.5227-6.6215-1.3864-9.4082 5.1856-2.597 13.406 4.5154 12.094 1.3964-1.3127-3.119-6.4029-5.2411-11.362-5.5974 0.11995-1.9969 1.8725-5.6736 3.4737-7.062 1.6012-1.3885 4.3519-1.9572 6.9279-2.2487zm47.7 10.886c2.669 1.5737-3.2579 12.507-6.1205 10.647-2.8626-1.8607 3.4515-12.22 6.1205-10.647zm-13.532 0.10988c3.897 2.2137-3.2808 12.964-5.9407 11.355-1.6528-1-0.26059-6.1474 1.8126-9.2562 1.7759 1.867 3.7048 3.5573 4.6445 3.9172 0.60674 0.2324 2.375-2.528 0.49841-2.2779-0.93102 0.12404-3.6332-1.7243-3.8287-3.271 1.0473-1.0891 1.7104-1.0936 2.8139-0.46673zm9.196 16.875c2.1599 3.7498 3.493 10.683 1.9125 15.483-2.8598 7.7105-11.938 13.138-19.064 10.025-10.178-6.2513 0.39637-15.317 7.4342-19.587 1.4105-0.82568 9.7178-5.9202 9.7178-5.9202z"/>
 </g>
</svg>
