<?xml version="1.0" encoding="UTF-8" standalone="no"?>
<svg id="svg2" xmlns:rdf="http://www.w3.org/1999/02/22-rdf-syntax-ns#" xmlns="http://www.w3.org/2000/svg" height="43.462mm" width="101.6mm" version="1.1" xmlns:cc="http://creativecommons.org/ns#" xmlns:dc="http://purl.org/dc/elements/1.1/" viewBox="0 0 359.99999 154">
 <metadata id="metadata7">
  <rdf:RDF>
   <cc:Work rdf:about="">
    <dc:format>image/svg+xml</dc:format>
    <dc:type rdf:resource="http://purl.org/dc/dcmitype/StillImage"/>
    <dc:title/>
   </cc:Work>
  </rdf:RDF>
 </metadata>
 <g id="layer3" transform="translate(1320.6 -272.62)">
  <g id="g4215" fill="#1e1e1e" transform="matrix(.49315 0 0 .49251 -669.35 239.82)">
   <path id="path4147" d="m-739.8 271.63c-21.627-9.2389-25.74-16.188-27.988-32.953-9.9435 19.217-34.965 29.034-50.781 7.1613-24.012 17.624-48.881 3.9388-54.078-15.08-16.642 17.227-61.241 36.272-83.228 26.176l-6.4875-3.8167c-9.7666 6.7042-20.337 6.1544-22.777-2.8933 2.182-41.243 2.9279-63.248 8.1357-94.398 5.0568-30.247 22.345-89.245 22.345-89.245s16.451 0.61834 17.665 10.254c-12.745 27.98-23.316 87.133-23.316 87.133s14.516-13.079 29.833-11.373c23.198 2.5845 33.872 29.031 33.266 48.673-0.40484 13.12-3.1301 26.66-3.1301 26.66s13.331-5.745 23.728-18.179c-2.0158-22.657-0.57857-36.883 5.233-64.667 10.866-40.298 27.138-45.691 37.837-41.89 17.068 6.0642 8.3395 40.737 1.1522 59.073-9.9626 25.417-18.734 43.439-27.868 59.143 2.2307 6.806 6.6729 15.903 13.778 16.311 12.273 0.70419 21.754-14.086 26.865-25.266 4.3055-9.4176 7.501-18.682 12.377-27.558 9.1834-11.789 27.429-3.949 22.546 5.8401-15.815 5.9647-27.219 49.462-11.784 51.839 14.453 2.2263 23.611-30.428 13.477-50.461-2.8168-5.5683 3.8823-18.224 10.05-17.445 7.9257 1.001 14.84 20.906 14.84 20.906s3.9214-7.2406 6.6004-11.863c7.9393-13.698 22.633-24.705 33.753-25.285 5.9553-0.31072 12.054 4.1484 15.098 9.1934 7.145 11.842 4.8939 27.778 2.5688 41.411-1.8314 10.739-7.6632 30.931-12.72 30.104-8.2336-1.3463-8.0243-13.503-5.9541-18.783 3.3973-8.6645 11.85-37.686-1.483-42.238-14.046-4.7952-25.194 19.772-28.447 34.253-2.7608 12.288-0.87968 29.302 9.3858 36.598 7.1166 5.058 19.984-8.9996 26.1-2.1965 0.62155 1.1286 3.0101 5.3768 3.0101 5.3768 11.485-7.3231 45.322-19.436 47.027-19.244 4.8754 0.54834 7.8603 4.0643 5.8202 5.9416-11.796 10.854-46.312 26.429-46.26 28.532 21.389 84.883-41.942 128.43-80.205 106.08-31.91-18.638-11.1-60.279 44.016-101.83zm19.366 8.4453c-22.025 8.113-84.503 59.077-54.257 80.157s80.612-43.488 54.257-80.157zm-195.72-72.56c1.0924-13.038-3.071-34.596-16.1-35.798-15.316-1.4124-25.831 22.538-26.303 37.912-0.38424 12.519 6.9634 31.849 19.485 32.128 13.731 0.30644 21.77-20.556 22.917-34.242zm54.444-10.081c4.5778-3.7408 26.292-74.866 21.058-78.64-8.7049 1.326-25.589 73.671-21.058 78.64z"/>
   <path id="path4147-2" d="m-1086.5 248.18c-23.226 11.082-45.91-13.404-48.468-32.098-0.4237-4.2235-1.123-7.453-1.5541-7.1767-9.2945 12.341-23.641 42.247-35.982 46.538-10.221 0.51964-15.979-12.489-18.026-21.363-9.6066 6.8932-19.325 16.047-30.416 19.312-6.7264 1.8614-8.2519 1.8432-14.213-0.17001-23.312-12.166-19.86-35.56-14.889-53.336 6.9641-24.904 17.446-57.841 17.446-57.841s-64.042 3.306-76.938 1.8645-10.978-12.388-10.978-12.388c-0.4409-6.1521 77.176-10.764 94.593-11.351 6.7612-14.551 18.681-40.618 18.681-40.618s12.137-6.0484 19.533-1.6258c0 0-10.985 25.77-16.163 43.305 8.5551 0.6702 14.097 5.3083 11.137 13.787-3.1144 8.9213-9.9607 8.194-18.69 7.8783-10.265 27.273-29.104 69.257-20.658 87.043 11.137 23.453 44.293-31.278 53.709-45.354 20.787-34.881 17.542-77.186 43.104-105.1 2.6067-2.8463 6.5-6.0623 10.283-5.3104 6.3987 1.2718 12.56 9.562 12.649 14.954-6.6373 27.616-19.92 55.152-27.212 79.235 0.4281 3.6809 10.516-9.656 18.03-9.0336 9.1178 0.88319 18.166 10.558 16.586 17.736-4.424 17.688-16.23 60.888 10.991 47.094 17.345-13.038 15.019-38.711 28.654-60.432 9.3883-14.963 20.282-13.711 26.927 0.0205 4.9878 28.291-4.9631 47.335-21.59 66.527-7.7198 13.476 14.117 8.5497 12.666 17.091-0.7095 3.8702-3.8483 6.8699-8.8985 8.504-14.733 3.7231-19.864-14.406-30.316-7.6927z"/>
   <circle id="path4207" cy="247.46" cx="-631.76" r="6.2392"/>
   <circle id="circle4209" cx="-614.3" cy="247.46" r="6.2392"/>
   <circle id="circle4211" cy="247.46" cx="-596.84" r="6.2392"/>
  </g>
  <path id="path4445" d="m-1355.5 951.75c-0.8-6.4771-0.8-6.4771-5.0035-7.1899-5.057-0.8576-7.4978-2.0853-12.9-6.4885-4.9829-4.0618-6.1993-4.1667-6.8927-0.59453-11.38 26.291-27.213 43.847-42.084 56.379-0.9968 1.6128-17.739 0.47415-23.592-1.6044-3.0602-1.0869-7.2856-4.1133-12.25-8.7742-4.168-3.9132-7.5783-7.4284-7.5783-7.8115 0-1.2417-6.4696-11.48-7.485-11.845-1.0042-0.36114-2.6152 1.9908-6.7011 9.783-5.7282 10.924-19.159 16.984-29.19 13.17-1.8378-0.69876-3.3622-0.5257-5.717 0.64904-2.482 1.2382-3.5738 1.3404-4.809 0.45041-0.879-0.63328-2.7231-1.6001-4.0981-2.1484-1.375-0.54836-3.175-1.3538-4-1.7898-2.3464-1.2401-8.2353-14.09-8.7749-19.147-0.2677-2.5086-0.8593-5.035-1.3148-5.6142-0.4734-0.60186 0.011-2.433 1.1308-4.2742 2.1985-3.6151 2.4956-5.8273 0.8562-6.3738-0.7552-0.25174-0.8751-2.4932-0.3804-7.1128 0.672-6.2749 0.8709-6.701 2.8527-6.1116 4.3414 1.2911 6.7555 3.4557 6.1127 5.4809-0.3481 1.0968-0.1518 1.9444 0.4503 1.9444 0.5871 0 1.0674 1.3069 1.0674 2.9042 0 7.1153 7.9363 24.314 12.731 27.589 3.9077 2.669 6.863 2.5832 10.888-0.31612 2.1346-1.5374 4.619-3.0731 5.5211-3.4126 0.902-0.3395 2.291-1.8879 3.0866-3.4409s2.3168-4.3986 3.3805-6.3236c1.0636-1.925 2.5265-5.3 3.2508-7.5 0.7242-2.2 2.5841-7.6 4.1329-12 1.5489-4.4 3.5625-11.825 4.4746-16.5 0.9122-4.675 2.3056-10.79 3.0965-13.588 0.7909-2.7983 1.438-7.3324 1.438-10.076 0-4.0418 0.4794-5.4381 2.5274-7.3622 2.389-2.2443 2.7848-2.3056 7.226-1.1177 2.5842 0.69116 5.0733 1.7937 5.5315 2.4501 1.0829 1.5516 0.064 16.394-1.4172 20.643-1.6087 4.6146-0.4824 32.211 1.5325 37.55 4.3765 11.598 5.5491 13.946 9.0632 18.15 6.3556 7.6033 14.317 9.7502 22.537 6.0774 20.86-12.312 32.803-51.268 33.65-71.727 0.2482-8.525 0.657-16.493 0.9086-17.706 0.653-3.15 6.2216-4.0313 11.862-1.8772 6.7597 2.5816 7.2877 3.6659 7.8312 16.083 0.5493 12.55 2.4172 18.03 7.8872 23.14 6.7739 6.328 9.7273 5.2495 11.702-4.2735 4.0773-19.659 8.2005-31.149 14.665-40.866 6.4195-9.6496 16.91-17.5 23.385-17.5 8.4355 0 12.196 1.273 17.29 5.8526 5.0794 4.5669 5.0794 4.5669 4.5101 15.607-0.7748 15.024-4.6452 25.481-13.623 36.803-7.2741 9.1737-16.814 17.08-25.318 20.984-3.5898 1.6478-3.75 1.9309-3.75 6.627 0 7.2145 2.8703 21.155 5.1022 24.78 2.8459 4.6224 9.2661 10.078 13.108 11.139 19.744 3.4099 54.472-25.112 51.925-39.446-6.8711-24.694 0.01-52.089 2.2227-74.666 3.1169-14.178 7.6379-28.63 14.329-41.745 4.1974-8.0307 9.8214-15.308 17.306-19.936 5.7016-3.5256 12.812-5.7226 19.477-5.0086 6.7689 1.6363 13.273 6.5858 15.959 12.87 5.3682 21.433-2.0281 37.17-7.0462 54.937-8.2511 29.214-35.091 55.562-37.382 83.045 0 2.3553 4.9528 9.9275 8.9326 13.657 2.657 2.4897 4.0037 2.9884 7.9173 2.9316 2.5937-0.0376 6.2327-0.82514 8.0866-1.75 5.1319-2.5601 8.5743-2.1773 10.995 1.2228 2.7634 3.8809 2.6605 4.506-1.5761 9.5744-4.9356 5.9045-10.363 7.9122-19.758 7.3092-8.6924-0.55785-14.316-3.427-22.921-11.693-5.8233-5.5945-5.8233-5.5945-12 1.0516-5.0493 3.9597-34.718 27.665-53.741 23.277-20.279-4.677-36.672-21.736-40.636-47.401zm-159.3 33.092c0-0.48674-1.1804-1.6584-2.6231-2.6037-1.722-1.1283-2.3386-1.2537-1.7947-0.36501 2.0741 3.3894 4.4178 4.9643 4.4178 2.9687zm-18.396-23.844c-1.0165-1.0165-1.8553 0.51389-1.0213 1.8634 0.6301 1.0194 0.8656 1.0202 1.2044 0.004 0.2315-0.69479 0.1492-1.5351-0.1831-1.8674zm309.4-89.034c1.1938-11.123 16.285-48.621 8.5115-51.236-12.134 7.6658-18.209 23.42-22.476 35-3.1109 6.8226-16.107 64.197-9.2206 64.988 8.6653-13.537 19.392-34.049 23.185-48.752zm-92.516 26.264c2.7034-6.1829 4.9838-14.363 4.2176-15.129-6.755 2.186-9.0266 8.532-12.184 13.629-2.5079 4.0119-7.5411 16.817-7.4767 19.021 0.075 2.5584 13.15-12.276 15.444-17.521zm380.51 98.757c-9.2788-14.552-9.8471-36.291-12.508-46.936-5.4628-21.837-10.895-33.532-14.866-32.008-5.5843 2.1429-15.527 26.782-19.63 48.644-0.50539 8.0671-0.73554 17.986-4.246 25.081-5.3558 8.7932-12.276 5.9023-16.558 1.6281-4.6917-4.6908-4.6917-4.6908-5.366-26.928-0.9998-16.685-2.1181-43.722-8.5388-56.34-3.4838-6.2333-6.9491-8.3976-13.446-8.3976-6.8088 0-23.397 5.8545-25.297 8.9278 0.4815 14.092 4.2235 28.394 0.3966 41.036-6.0463 18.754-11.709 47.869-34.452 48.036-10.209-0.0135-15.51-19.195-21.325-28.833-0.4595 0.18333-3.659 3.6289-7.11 7.6567-11.097 12.059-24.202 20.645-37.554 20.677-19.792-1.1687-28.593-15.749-33.807-31.329-3.0277-9.2096-2.9167-27.134 0.2642-42.671 3.4928-14.659 7.8252-25.244 13.09-37.433 5.2968-8.8931 13.948-23.981 24.556-24.067 9.4872 0.0317 12.113 5.8611 16.353 11.79 2.8216 6.6836 10.215 29.528 4.25 35.481-2.264 1.9934-7.4761 1.1487-10.019-1.6238-6.3872-5.3613-6.1986-17.08-9.4918-22.337-2.6758-1.6538-12.763 15.213-17.456 29.189-4.6645 13.89-6.1178 28.097-4.399 43 1.1024 9.558 5.3193 19.444 9.1737 21.507 9.2675 4.9598 27.196-10.021 46.54-38.889 13.564-18.169 21.595-37.934 30.495-57.822 2.5107-5.6138 5.3911-7.4376 10.077-6.3807 4.4536 1.0045 12.874 6.6506 12.874 8.6324 0 1.9014 1.2948 1.8079 8.5-0.61402 16.006-5.1321 28.243-0.61976 41.464 4.066 8.3699 5.1701 18.783 20.522 20.036 29.688 0 2.2547 2.9879 1.1078 4.3969-1.6876 4.6305-9.1868 6.4386-12.082 10.461-16.75 4.4507-5.1652 4.6135-5.2498 10.083-5.2402 12.575 0.0221 23.307 8.4958 31.017 24.49 3.4974 5.9154 5.1422 13.052 7.6345 19.058 1.6504 3.9416 1.6504 3.9416 7.1061-7.0584 10.163-20.49 10.122-20.424 17.679-29.066 3.5526-4.0628 4.2697-4.4342 8.5622-4.4342 5.9115 0 12.014 2.9068 15.835 7.5432 2.4703 2.9969 3.1532 5.0844 4.1778 12.77 2.4742 14.718 1.6155 31.778 11.131 42.937 4.4044 5.1386 5.8822 5.5503 13.223 3.6841 7.9576-2.023 7.8868-1.8481 7.7477-19.163-0.12748-14.273 4.6532-44.691 19.975-53.287 6.7069-3.4682 17.479-0.87528 23.743 5.7152 6.6112 9.6277 6.5117 27.479 3.1047 38.591-14.521 19.422-22.323 27.613-20.352 36.201 1.1129 4.4887 5.4488 7.7692 13.746 10.4 3.1168 0.98829 3.0053 3.3788-0.3524 7.557-2.8884 3.5943-3.7363 4.0504-7.5286 4.0504-5.863-0.44006-11.564-4.1666-15.657-7.1238-7.0446-5.1238-7.0446-5.1238-15.306-3.3901-6.0695 1.2737-10.152 1.5438-15.389 1.0178-8.1005-0.8135-11.731-3.1435-22.331-14.33-13.02-10.47-10.798-33.116-16.228-40.851-1.0233-0.33688-8.2503 14.133-10.327 20.677-0.61098 1.925-2.7517 8.675-4.7572 15-2.1936 6.9183-3.9316 14.805-4.3625 19.795-0.67531 7.8214-0.9106 8.4608-4.1251 11.209-5.0372 4.3071-10.257 4.0457-14.909-0.74681zm-140.89-46.757c1.2402-2.817 2.4899-20.934 1.8916-27.422-1.0458-11.341-4.0627-6.0515-9.6521 16.922-2.1744 10.675-5.5338 21.341-4.4514 32.333 6.0874 0.25507 10.297-17.301 12.212-21.833zm258.1-16.689c3.8976-7.9841 6.2419-19.811 3.9269-19.811-1.0991 0-6.1307 11.496-6.1307 14.007-0.88729 2.6933-1.9825 5.0371-2 7.6111 0 5.4685 0.82536 5.1138 4.2038-1.8069z"/>
 </g>
</svg>
