<?xml version="1.0" encoding="UTF-8" standalone="no"?>
<svg id="svg4136" xmlns:rdf="http://www.w3.org/1999/02/22-rdf-syntax-ns#" xmlns="http://www.w3.org/2000/svg" height="21.448mm" width="57.972mm" version="1.1" xmlns:cc="http://creativecommons.org/ns#" xmlns:dc="http://purl.org/dc/elements/1.1/" viewBox="0 0 205.41319 75.996573">
 <metadata id="metadata4141">
  <rdf:RDF>
   <cc:Work rdf:about="">
    <dc:format>image/svg+xml</dc:format>
    <dc:type rdf:resource="http://purl.org/dc/dcmitype/StillImage"/>
    <dc:title/>
   </cc:Work>
  </rdf:RDF>
 </metadata>
 <g id="layer1" transform="translate(-691.45 -853.73)">
  <path id="path4787" d="m713.19 854.79c-5.2557 4.625-10.723 18.762-14.623 28.814-4.0007 10.266-15.215 46.125 2.9082 46.125 10.191 0 12.077-8.9182 15.08-12.901 0.53476-0.78177 0.55078-0.78302 1.2397-0.16017 5.1999 7.4523 6.2601 11.234 12.949 12.652 6.6889 1.4186 13.382-5.1636 16.983-9.6383 1.0821 4.6279 3.5834 9.4946 6.2179 9.6528 4.4841 0.2693 10.738-5.8245 10.738-5.8245s2.919 5.2095 8.9449 5.7483c6.0259 0.53881 11.009-5.2854 11.009-5.2854s0.0677 3.8395 6.3895 4.1721c6.3218 0.33258 10.58-5.6643 10.58-5.6643s3.2974 4.3487 5.7014 5.3499c6.4076 2.6431 8.7739 1.4908 13.942-1.8961 0 0 3.2082 3.1609 6.7622 3.2306s8.0012-5.1805 9.2696-12.386c1.2684-7.206-0.47423-11.901-0.47423-11.901s2.1975-1.3978 4.9064 1.1463c5.1398 4.8271 0.86347 14.016 0.98912 20.827 0.3257 0.85052 0.98243 2.4435 2.072 2.4435 2.6256 0 3.4914-1.6512 3.7288-7.1175 0.87593-4.4681 0.72581-11.091 5.3544-12.717 0.50077 1.7304 3.1523 20 6.1971 20.009 2.5398-0.099 5.2171-8.8502 9.3705-14.273 0 0-1.4705 14.377 4.965 14.193 6.4355-0.18361 9.1924-5.4788 9.1924-5.4788s0.78475 5.8282 5.4227 5.7542c4.6379-0.074 0.95411-3.0899-0.60814-6.1956s3.3994-8.0234 5.869-13.491c2.4696-5.4674 3.6401-11.142-0.81866-13.104-4.4587-1.9626-8.7361 2.858-10.376 9.6567-0.65531 2.7592-2.3376 19.847-8.2003 16.946-3.0434-5.4009 0.34914-13.342 0.66252-18.484 0.17857-2.93-4.2865-3.8663-6.9237-0.028s-5.5453 12.238-7.7747 16.259c-2.1073-2.0692-0.19751-21.029-6.5064-21.062-4.0172 0.58192-4.6501 2.7051-7.5141 4.967-7.4748-6.7485-16.658-5.8785-19.795-0.86883-3.5123 5.6101-3.555 11.446-6.9609 17.12-3.0736 5.121-12.241 7.8565-13.228-2.8567-0.5888-6.5226 2.4934-15.844 5.0406-15.729 2.6694 0.12077-0.34393 5.3856 2.9901 7.2054s3.003-11.105-0.92197-12.702c-4.0295-1.6395-7.2304 1.4262-9.7499 8.6859-1.7084 4.9227-1.7647 9.5356-5.6059 13.653-4.0713 3.4078-8.2814 6.5138-10.863 1.7657 3.8785-5.4226 7.222-11.838 9.4789-18.622 2.2569-6.7841 4.6488-14.926 2.764-19.003-1.8849-4.0766-4.7676-4.0307-7.7734-2.0626s-7.2344 8.5065-8.4576 18.681-1.0876 17.227-4.1148 21.3c-2.9768 4.0046-6.1216 4.5465-9.2977 1.7891-2.7806-2.4141 1.9134-7.3012 3.9218-10.743 3.1139-4.5508 7.6331-13.513 0.9551-16.18-6.188-2.0684-9.8265 4.1126-11.268 9.27-1.2366 4.4232-1.1233 9.2452-2.4306 13.376-0.74706 2.3602-4.2861 5.1906-7.251 4.9983-1.7792-0.11544-2.6079-5.0762-3.569-8.6996 5.6087-8.8179 9.2432-20.181 10.095-30.421 0.85556-10.287-5.2618-25.358-12.662-30.292-2.5409-2.3754-5.3297 0.19778-3.7171 2.0919 8.5818 10.725 13.058 18.58 9.8162 34.16-2.2093 10.618-8.2317 23.744-17.898 31.669-2.7519 1.8248-6.8068 1.2218-9.1866-1.3653-2.7331-2.9711-3.6801-6.2714-3.6801-12.827 0-12.085 8.3991-25.568 15.849-41.58 1.2202-3.0059-0.66387-4.9501-4.5748-3.84-11.548 4.4767-14.844 31.595-18.847 43.621-2.9552 5.4843-9.1214 18.989-14.831 16.901-5.7093-2.0885-3.6012-11.096-2.743-16.752 1.9214-12.662 15.426-45.903 21.519-51.186-0.10476-2.9166-4.9739-1.9964-6.6292-0.8926zm81.215 33.484c3.6008 1.3768-5.8934 26.379-7.7656 25.8-1.8723-0.57924 4.1648-27.177 7.7656-25.8zm-20.969 11.729c2.9286 1.6997-5.037 15.816-6.6546 14.981-1.6175-0.83485 3.726-16.681 6.6546-14.981zm117.94 0.69178c3.778 0.53712-3.2231 14.492-4.988 14.61-1.8416 0.12271 1.21-15.147 4.988-14.61zm-58.659 6.4153c3.2341 1.1972-0.6622 18.11-4.4952 16.994-5.4725-1.5938 1.2612-18.191 4.4952-16.994z" fill="#1e1e1e"/>
 </g>
</svg>
